solid OpenSCAD_Model
  facet normal -0.996917 -0.0784595 0
    outer loop
      vertex 0.0369349 2.5307 0
      vertex 0 3 1.2
      vertex 0 3 0
    endloop
  endfacet
  facet normal -0.996917 -0.0784595 0
    outer loop
      vertex 0 3 1.2
      vertex 0.0369349 2.5307 0
      vertex 0.0369349 2.5307 1.2
    endloop
  endfacet
  facet normal 0 0 1
    outer loop
      vertex 47 30 1.2
      vertex 50 27 1.2
      vertex 49.9631 27.4693 1.2
    endloop
  endfacet
  facet normal 0 0 1
    outer loop
      vertex 50 27 1.2
      vertex 28.1463 18.9113 1.2
      vertex 50 3 1.2
    endloop
  endfacet
  facet normal 0 0 1
    outer loop
      vertex 47 30 1.2
      vertex 49.9631 27.4693 1.2
      vertex 49.8532 27.9271 1.2
    endloop
  endfacet
  facet normal -0 0 1
    outer loop
      vertex 28.1463 11.2675 1.2
      vertex 50 3 1.2
      vertex 28.1463 18.9113 1.2
    endloop
  endfacet
  facet normal 0 0 1
    outer loop
      vertex 47 30 1.2
      vertex 49.8532 27.9271 1.2
      vertex 49.673 28.362 1.2
    endloop
  endfacet
  facet normal 0 -0 1
    outer loop
      vertex 47 0 1.2
      vertex 50 3 1.2
      vertex 28.1463 11.2675 1.2
    endloop
  endfacet
  facet normal 0 0 1
    outer loop
      vertex 47 30 1.2
      vertex 49.673 28.362 1.2
      vertex 49.4271 28.7634 1.2
    endloop
  endfacet
  facet normal 0 0 1
    outer loop
      vertex 50 3 1.2
      vertex 47 0 1.2
      vertex 49.9631 2.5307 1.2
    endloop
  endfacet
  facet normal 0 0 1
    outer loop
      vertex 47 30 1.2
      vertex 49.4271 28.7634 1.2
      vertex 49.1213 29.1213 1.2
    endloop
  endfacet
  facet normal 0 0 1
    outer loop
      vertex 49.9631 2.5307 1.2
      vertex 47 0 1.2
      vertex 49.8532 2.07295 1.2
    endloop
  endfacet
  facet normal 0 0 1
    outer loop
      vertex 47 30 1.2
      vertex 49.1213 29.1213 1.2
      vertex 48.7634 29.4271 1.2
    endloop
  endfacet
  facet normal 0 0 1
    outer loop
      vertex 50 27 1.2
      vertex 47 30 1.2
      vertex 28.1463 18.9113 1.2
    endloop
  endfacet
  facet normal 0 0 1
    outer loop
      vertex 47 30 1.2
      vertex 48.7634 29.4271 1.2
      vertex 48.362 29.673 1.2
    endloop
  endfacet
  facet normal 0 0 1
    outer loop
      vertex 49.8532 2.07295 1.2
      vertex 47 0 1.2
      vertex 49.673 1.63803 1.2
    endloop
  endfacet
  facet normal 0 0 1
    outer loop
      vertex 47 30 1.2
      vertex 48.362 29.673 1.2
      vertex 47.9271 29.8532 1.2
    endloop
  endfacet
  facet normal 0 0 1
    outer loop
      vertex 49.1213 0.878679 1.2
      vertex 47 0 1.2
      vertex 48.7634 0.572948 1.2
    endloop
  endfacet
  facet normal 0 0 1
    outer loop
      vertex 47 30 1.2
      vertex 47.9271 29.8532 1.2
      vertex 47.4693 29.9631 1.2
    endloop
  endfacet
  facet normal 0 0 1
    outer loop
      vertex 48.7634 0.572948 1.2
      vertex 47 0 1.2
      vertex 48.362 0.32698 1.2
    endloop
  endfacet
  facet normal 0 0 1
    outer loop
      vertex 48.362 0.32698 1.2
      vertex 47 0 1.2
      vertex 47.9271 0.14683 1.2
    endloop
  endfacet
  facet normal 0 0 1
    outer loop
      vertex 47.9271 0.14683 1.2
      vertex 47 0 1.2
      vertex 47.4693 0.0369349 1.2
    endloop
  endfacet
  facet normal 0 0 1
    outer loop
      vertex 49.673 1.63803 1.2
      vertex 47 0 1.2
      vertex 49.4271 1.23664 1.2
    endloop
  endfacet
  facet normal 0 0 1
    outer loop
      vertex 47 30 1.2
      vertex 22.0431 18.9113 1.2
      vertex 28.1463 18.9113 1.2
    endloop
  endfacet
  facet normal -0 0 1
    outer loop
      vertex 0 27 1.2
      vertex 22.0431 18.9113 1.2
      vertex 3 30 1.2
    endloop
  endfacet
  facet normal -0 0 1
    outer loop
      vertex 3 30 1.2
      vertex 22.0431 18.9113 1.2
      vertex 47 30 1.2
    endloop
  endfacet
  facet normal 0 0 1
    outer loop
      vertex 49.4271 1.23664 1.2
      vertex 47 0 1.2
      vertex 49.1213 0.878679 1.2
    endloop
  endfacet
  facet normal -0 0 1
    outer loop
      vertex 22.0431 11.2675 1.2
      vertex 47 0 1.2
      vertex 28.1463 11.2675 1.2
    endloop
  endfacet
  facet normal 0 0 1
    outer loop
      vertex 22.0431 11.2675 1.2
      vertex 3 0 1.2
      vertex 47 0 1.2
    endloop
  endfacet
  facet normal 0 0 1
    outer loop
      vertex 22.0431 18.9113 1.2
      vertex 0 27 1.2
      vertex 22.0431 11.2675 1.2
    endloop
  endfacet
  facet normal 0 0 1
    outer loop
      vertex 0 27 1.2
      vertex 3 30 1.2
      vertex 2.5307 29.9631 1.2
    endloop
  endfacet
  facet normal 0 0 1
    outer loop
      vertex 0 3 1.2
      vertex 22.0431 11.2675 1.2
      vertex 0 27 1.2
    endloop
  endfacet
  facet normal 0 0 1
    outer loop
      vertex 0 27 1.2
      vertex 2.5307 29.9631 1.2
      vertex 2.07295 29.8532 1.2
    endloop
  endfacet
  facet normal 0 0 1
    outer loop
      vertex 22.0431 11.2675 1.2
      vertex 0 3 1.2
      vertex 3 0 1.2
    endloop
  endfacet
  facet normal 0 0 1
    outer loop
      vertex 0 27 1.2
      vertex 2.07295 29.8532 1.2
      vertex 1.63803 29.673 1.2
    endloop
  endfacet
  facet normal 0 0 1
    outer loop
      vertex 3 0 1.2
      vertex 0 3 1.2
      vertex 2.5307 0.0369349 1.2
    endloop
  endfacet
  facet normal 0 0 1
    outer loop
      vertex 0 27 1.2
      vertex 1.63803 29.673 1.2
      vertex 1.23664 29.4271 1.2
    endloop
  endfacet
  facet normal 0 0 1
    outer loop
      vertex 2.5307 0.0369349 1.2
      vertex 0 3 1.2
      vertex 2.07295 0.14683 1.2
    endloop
  endfacet
  facet normal 0 0 1
    outer loop
      vertex 0 27 1.2
      vertex 1.23664 29.4271 1.2
      vertex 0.878679 29.1213 1.2
    endloop
  endfacet
  facet normal 0 0 1
    outer loop
      vertex 2.07295 0.14683 1.2
      vertex 0 3 1.2
      vertex 1.63803 0.32698 1.2
    endloop
  endfacet
  facet normal 0 0 1
    outer loop
      vertex 0 27 1.2
      vertex 0.878679 29.1213 1.2
      vertex 0.572948 28.7634 1.2
    endloop
  endfacet
  facet normal 0 0 1
    outer loop
      vertex 1.63803 0.32698 1.2
      vertex 0 3 1.2
      vertex 1.23664 0.572948 1.2
    endloop
  endfacet
  facet normal 0 0 1
    outer loop
      vertex 0 27 1.2
      vertex 0.572948 28.7634 1.2
      vertex 0.32698 28.362 1.2
    endloop
  endfacet
  facet normal 0 0 1
    outer loop
      vertex 1.23664 0.572948 1.2
      vertex 0 3 1.2
      vertex 0.878679 0.878679 1.2
    endloop
  endfacet
  facet normal 0 0 1
    outer loop
      vertex 0 27 1.2
      vertex 0.32698 28.362 1.2
      vertex 0.14683 27.9271 1.2
    endloop
  endfacet
  facet normal 0 0 1
    outer loop
      vertex 0.878679 0.878679 1.2
      vertex 0 3 1.2
      vertex 0.572948 1.23664 1.2
    endloop
  endfacet
  facet normal 0 0 1
    outer loop
      vertex 0 27 1.2
      vertex 0.14683 27.9271 1.2
      vertex 0.0369349 27.4693 1.2
    endloop
  endfacet
  facet normal 0 0 1
    outer loop
      vertex 0.572948 1.23664 1.2
      vertex 0 3 1.2
      vertex 0.32698 1.63803 1.2
    endloop
  endfacet
  facet normal 0 0 1
    outer loop
      vertex 0.32698 1.63803 1.2
      vertex 0 3 1.2
      vertex 0.14683 2.07295 1.2
    endloop
  endfacet
  facet normal 0 0 1
    outer loop
      vertex 0.14683 2.07295 1.2
      vertex 0 3 1.2
      vertex 0.0369349 2.5307 1.2
    endloop
  endfacet
  facet normal -0 0 1
    outer loop
      vertex 22.4554 18.499 1.2
      vertex 27.7339 11.6798 1.2
      vertex 27.7339 18.499 1.2
    endloop
  endfacet
  facet normal 0 0 1
    outer loop
      vertex 27.7339 11.6798 1.2
      vertex 22.4554 18.499 1.2
      vertex 22.4554 11.6798 1.2
    endloop
  endfacet
  facet normal 0.996923 0.0783858 0
    outer loop
      vertex 50 27 1.2
      vertex 49.9631 27.4693 0
      vertex 49.9631 27.4693 1.2
    endloop
  endfacet
  facet normal 0.996923 0.0783858 0
    outer loop
      vertex 49.9631 27.4693 0
      vertex 50 27 1.2
      vertex 50 27 0
    endloop
  endfacet
  facet normal 0 -1 0
    outer loop
      vertex 3 0 0
      vertex 47 0 1.2
      vertex 3 0 1.2
    endloop
  endfacet
  facet normal 0 -1 -0
    outer loop
      vertex 47 0 1.2
      vertex 3 0 0
      vertex 47 0 0
    endloop
  endfacet
  facet normal 0.0784595 -0.996917 0
    outer loop
      vertex 47 0 0
      vertex 47.4693 0.0369349 1.2
      vertex 47 0 1.2
    endloop
  endfacet
  facet normal 0.0784595 -0.996917 0
    outer loop
      vertex 47.4693 0.0369349 1.2
      vertex 47 0 0
      vertex 47.4693 0.0369349 0
    endloop
  endfacet
  facet normal 0 1 -0
    outer loop
      vertex 47 30 0
      vertex 3 30 1.2
      vertex 47 30 1.2
    endloop
  endfacet
  facet normal 0 1 0
    outer loop
      vertex 3 30 1.2
      vertex 47 30 0
      vertex 3 30 0
    endloop
  endfacet
  facet normal 0.522378 0.852714 -0
    outer loop
      vertex 48.7634 29.4271 0
      vertex 48.362 29.673 1.2
      vertex 48.7634 29.4271 1.2
    endloop
  endfacet
  facet normal 0.522378 0.852714 0
    outer loop
      vertex 48.362 29.673 1.2
      vertex 48.7634 29.4271 0
      vertex 48.362 29.673 0
    endloop
  endfacet
  facet normal -1 0 0
    outer loop
      vertex 0 3 0
      vertex 0 27 1.2
      vertex 0 27 0
    endloop
  endfacet
  facet normal -1 -0 0
    outer loop
      vertex 0 27 1.2
      vertex 0 3 0
      vertex 0 3 1.2
    endloop
  endfacet
  facet normal -0 0 1
    outer loop
      vertex 49.673 1.63803 0
      vertex 49.8 0.2 0
      vertex 49.8 1.94458 0
    endloop
  endfacet
  facet normal -0 0 1
    outer loop
      vertex 49.4271 1.23664 0
      vertex 49.8 0.2 0
      vertex 49.673 1.63803 0
    endloop
  endfacet
  facet normal -0 0 1
    outer loop
      vertex 49.1213 0.878679 0
      vertex 49.8 0.2 0
      vertex 49.4271 1.23664 0
    endloop
  endfacet
  facet normal -0 0 1
    outer loop
      vertex 48.7634 0.572948 0
      vertex 49.8 0.2 0
      vertex 49.1213 0.878679 0
    endloop
  endfacet
  facet normal -0 0 1
    outer loop
      vertex 48.362 0.32698 0
      vertex 49.8 0.2 0
      vertex 48.7634 0.572948 0
    endloop
  endfacet
  facet normal 0 0 1
    outer loop
      vertex 49.8 0.2 0
      vertex 48.362 0.32698 0
      vertex 48.0554 0.2 0
    endloop
  endfacet
  facet normal 0 0 1
    outer loop
      vertex 1.63803 0.32698 0
      vertex 0.2 0.2 0
      vertex 1.94458 0.2 0
    endloop
  endfacet
  facet normal 0 0 1
    outer loop
      vertex 1.23664 0.572948 0
      vertex 0.2 0.2 0
      vertex 1.63803 0.32698 0
    endloop
  endfacet
  facet normal 0 0 1
    outer loop
      vertex 0.878679 0.878679 0
      vertex 0.2 0.2 0
      vertex 1.23664 0.572948 0
    endloop
  endfacet
  facet normal 0 0 1
    outer loop
      vertex 0.572948 1.23664 0
      vertex 0.2 0.2 0
      vertex 0.878679 0.878679 0
    endloop
  endfacet
  facet normal 0 0 1
    outer loop
      vertex 0.32698 1.63803 0
      vertex 0.2 0.2 0
      vertex 0.572948 1.23664 0
    endloop
  endfacet
  facet normal 0 0 1
    outer loop
      vertex 0.2 0.2 0
      vertex 0.32698 1.63803 0
      vertex 0.2 1.94458 0
    endloop
  endfacet
  facet normal 0 0 1
    outer loop
      vertex 49.8 29.8 0
      vertex 49.673 28.362 0
      vertex 49.8 28.0554 0
    endloop
  endfacet
  facet normal 0 0 1
    outer loop
      vertex 49.8 29.8 0
      vertex 49.4271 28.7634 0
      vertex 49.673 28.362 0
    endloop
  endfacet
  facet normal 0 0 1
    outer loop
      vertex 49.8 29.8 0
      vertex 49.1213 29.1213 0
      vertex 49.4271 28.7634 0
    endloop
  endfacet
  facet normal 0 0 1
    outer loop
      vertex 49.8 29.8 0
      vertex 48.7634 29.4271 0
      vertex 49.1213 29.1213 0
    endloop
  endfacet
  facet normal 0 0 1
    outer loop
      vertex 49.8 29.8 0
      vertex 48.362 29.673 0
      vertex 48.7634 29.4271 0
    endloop
  endfacet
  facet normal 0 -0 1
    outer loop
      vertex 48.362 29.673 0
      vertex 49.8 29.8 0
      vertex 48.0554 29.8 0
    endloop
  endfacet
  facet normal -0 0 1
    outer loop
      vertex 0.2 29.8 0
      vertex 1.63803 29.673 0
      vertex 1.94458 29.8 0
    endloop
  endfacet
  facet normal 0 0 1
    outer loop
      vertex 0.2 29.8 0
      vertex 1.23664 29.4271 0
      vertex 1.63803 29.673 0
    endloop
  endfacet
  facet normal 0 0 1
    outer loop
      vertex 0.2 29.8 0
      vertex 0.878679 29.1213 0
      vertex 1.23664 29.4271 0
    endloop
  endfacet
  facet normal 0 0 1
    outer loop
      vertex 0.2 29.8 0
      vertex 0.572948 28.7634 0
      vertex 0.878679 29.1213 0
    endloop
  endfacet
  facet normal 0 0 1
    outer loop
      vertex 0.2 29.8 0
      vertex 0.32698 28.362 0
      vertex 0.572948 28.7634 0
    endloop
  endfacet
  facet normal 0 0 1
    outer loop
      vertex 0.32698 28.362 0
      vertex 0.2 29.8 0
      vertex 0.2 28.0554 0
    endloop
  endfacet
  facet normal 0 0 -1
    outer loop
      vertex 48 2 0
      vertex 37.15 15 0
      vertex 48 28 0
    endloop
  endfacet
  facet normal 0 0 -1
    outer loop
      vertex 48 2 0
      vertex 37.0915 13.8091 0
      vertex 37.15 15 0
    endloop
  endfacet
  facet normal 0 0 -1
    outer loop
      vertex 48 2 0
      vertex 36.9165 12.6297 0
      vertex 37.0915 13.8091 0
    endloop
  endfacet
  facet normal 0 0 -1
    outer loop
      vertex 48 2 0
      vertex 36.6268 11.473 0
      vertex 36.9165 12.6297 0
    endloop
  endfacet
  facet normal 0 0 -1
    outer loop
      vertex 48 2 0
      vertex 36.2251 10.3504 0
      vertex 36.6268 11.473 0
    endloop
  endfacet
  facet normal 0 0 -1
    outer loop
      vertex 48 2 0
      vertex 35.7153 9.27253 0
      vertex 36.2251 10.3504 0
    endloop
  endfacet
  facet normal 0 0 -1
    outer loop
      vertex 48 2 0
      vertex 35.1024 8.24982 0
      vertex 35.7153 9.27253 0
    endloop
  endfacet
  facet normal 0 0 -1
    outer loop
      vertex 48 2 0
      vertex 34.3921 7.29212 0
      vertex 35.1024 8.24982 0
    endloop
  endfacet
  facet normal 0 0 -1
    outer loop
      vertex 48 2 0
      vertex 33.5913 6.40865 0
      vertex 34.3921 7.29212 0
    endloop
  endfacet
  facet normal 0 0 -1
    outer loop
      vertex 48 2 0
      vertex 32.7079 5.60792 0
      vertex 33.5913 6.40865 0
    endloop
  endfacet
  facet normal 0 0 -1
    outer loop
      vertex 48 2 0
      vertex 31.7502 4.89764 0
      vertex 32.7079 5.60792 0
    endloop
  endfacet
  facet normal 0 0 -1
    outer loop
      vertex 48 2 0
      vertex 30.7275 4.28466 0
      vertex 31.7502 4.89764 0
    endloop
  endfacet
  facet normal 0 0 -1
    outer loop
      vertex 48 2 0
      vertex 29.6496 3.77486 0
      vertex 30.7275 4.28466 0
    endloop
  endfacet
  facet normal 0 0 -1
    outer loop
      vertex 48 2 0
      vertex 28.527 3.37317 0
      vertex 29.6496 3.77486 0
    endloop
  endfacet
  facet normal 0 0 -1
    outer loop
      vertex 48 2 0
      vertex 27.3703 3.08346 0
      vertex 28.527 3.37317 0
    endloop
  endfacet
  facet normal 0 0 -1
    outer loop
      vertex 48 2 0
      vertex 26.1909 2.90851 0
      vertex 27.3703 3.08346 0
    endloop
  endfacet
  facet normal 0 0 -1
    outer loop
      vertex 48 2 0
      vertex 25 2.85 0
      vertex 26.1909 2.90851 0
    endloop
  endfacet
  facet normal -0 0 -1
    outer loop
      vertex 12.9085 13.8091 0
      vertex 2 2 0
      vertex 12.85 15 0
    endloop
  endfacet
  facet normal -0 0 -1
    outer loop
      vertex 13.0835 12.6297 0
      vertex 2 2 0
      vertex 12.9085 13.8091 0
    endloop
  endfacet
  facet normal -0 0 -1
    outer loop
      vertex 13.3732 11.473 0
      vertex 2 2 0
      vertex 13.0835 12.6297 0
    endloop
  endfacet
  facet normal -0 0 -1
    outer loop
      vertex 13.7749 10.3504 0
      vertex 2 2 0
      vertex 13.3732 11.473 0
    endloop
  endfacet
  facet normal -0 0 -1
    outer loop
      vertex 14.2847 9.27253 0
      vertex 2 2 0
      vertex 13.7749 10.3504 0
    endloop
  endfacet
  facet normal -0 0 -1
    outer loop
      vertex 14.8976 8.24982 0
      vertex 2 2 0
      vertex 14.2847 9.27253 0
    endloop
  endfacet
  facet normal -0 0 -1
    outer loop
      vertex 15.6079 7.29212 0
      vertex 2 2 0
      vertex 14.8976 8.24982 0
    endloop
  endfacet
  facet normal -0 0 -1
    outer loop
      vertex 16.4087 6.40865 0
      vertex 2 2 0
      vertex 15.6079 7.29212 0
    endloop
  endfacet
  facet normal -0 0 -1
    outer loop
      vertex 17.2921 5.60792 0
      vertex 2 2 0
      vertex 16.4087 6.40865 0
    endloop
  endfacet
  facet normal -0 0 -1
    outer loop
      vertex 18.2498 4.89764 0
      vertex 2 2 0
      vertex 17.2921 5.60792 0
    endloop
  endfacet
  facet normal -0 0 -1
    outer loop
      vertex 19.2725 4.28466 0
      vertex 2 2 0
      vertex 18.2498 4.89764 0
    endloop
  endfacet
  facet normal -0 0 -1
    outer loop
      vertex 20.3504 3.77486 0
      vertex 2 2 0
      vertex 19.2725 4.28466 0
    endloop
  endfacet
  facet normal -0 0 -1
    outer loop
      vertex 21.473 3.37317 0
      vertex 2 2 0
      vertex 20.3504 3.77486 0
    endloop
  endfacet
  facet normal -0 0 -1
    outer loop
      vertex 22.6297 3.08346 0
      vertex 2 2 0
      vertex 21.473 3.37317 0
    endloop
  endfacet
  facet normal -0 0 -1
    outer loop
      vertex 23.8091 2.90851 0
      vertex 2 2 0
      vertex 22.6297 3.08346 0
    endloop
  endfacet
  facet normal -0 0 -1
    outer loop
      vertex 25 2.85 0
      vertex 2 2 0
      vertex 23.8091 2.90851 0
    endloop
  endfacet
  facet normal 0 0 -1
    outer loop
      vertex 2 2 0
      vertex 25 2.85 0
      vertex 48 2 0
    endloop
  endfacet
  facet normal 0 0 -1
    outer loop
      vertex 37.0915 16.1909 0
      vertex 48 28 0
      vertex 37.15 15 0
    endloop
  endfacet
  facet normal 0 0 -1
    outer loop
      vertex 36.9165 17.3703 0
      vertex 48 28 0
      vertex 37.0915 16.1909 0
    endloop
  endfacet
  facet normal 0 0 -1
    outer loop
      vertex 36.6268 18.527 0
      vertex 48 28 0
      vertex 36.9165 17.3703 0
    endloop
  endfacet
  facet normal 0 0 -1
    outer loop
      vertex 36.2251 19.6496 0
      vertex 48 28 0
      vertex 36.6268 18.527 0
    endloop
  endfacet
  facet normal 0 0 -1
    outer loop
      vertex 35.7153 20.7275 0
      vertex 48 28 0
      vertex 36.2251 19.6496 0
    endloop
  endfacet
  facet normal 0 0 -1
    outer loop
      vertex 35.1024 21.7502 0
      vertex 48 28 0
      vertex 35.7153 20.7275 0
    endloop
  endfacet
  facet normal 0 0 -1
    outer loop
      vertex 34.3921 22.7079 0
      vertex 48 28 0
      vertex 35.1024 21.7502 0
    endloop
  endfacet
  facet normal 0 0 -1
    outer loop
      vertex 33.5913 23.5913 0
      vertex 48 28 0
      vertex 34.3921 22.7079 0
    endloop
  endfacet
  facet normal 0 0 -1
    outer loop
      vertex 32.7079 24.3921 0
      vertex 48 28 0
      vertex 33.5913 23.5913 0
    endloop
  endfacet
  facet normal 0 0 -1
    outer loop
      vertex 31.7502 25.1024 0
      vertex 48 28 0
      vertex 32.7079 24.3921 0
    endloop
  endfacet
  facet normal 0 0 -1
    outer loop
      vertex 30.7275 25.7153 0
      vertex 48 28 0
      vertex 31.7502 25.1024 0
    endloop
  endfacet
  facet normal 0 0 -1
    outer loop
      vertex 29.6496 26.2251 0
      vertex 48 28 0
      vertex 30.7275 25.7153 0
    endloop
  endfacet
  facet normal 0 0 -1
    outer loop
      vertex 28.527 26.6268 0
      vertex 48 28 0
      vertex 29.6496 26.2251 0
    endloop
  endfacet
  facet normal 0 0 -1
    outer loop
      vertex 27.3703 26.9165 0
      vertex 48 28 0
      vertex 28.527 26.6268 0
    endloop
  endfacet
  facet normal 0 0 -1
    outer loop
      vertex 26.1909 27.0915 0
      vertex 48 28 0
      vertex 27.3703 26.9165 0
    endloop
  endfacet
  facet normal 0 0 -1
    outer loop
      vertex 25 27.15 0
      vertex 48 28 0
      vertex 26.1909 27.0915 0
    endloop
  endfacet
  facet normal 0 0 -1
    outer loop
      vertex 2 28 0
      vertex 12.85 15 0
      vertex 2 2 0
    endloop
  endfacet
  facet normal 0 0 -1
    outer loop
      vertex 12.85 15 0
      vertex 2 28 0
      vertex 12.9085 16.1909 0
    endloop
  endfacet
  facet normal 0 0 -1
    outer loop
      vertex 12.9085 16.1909 0
      vertex 2 28 0
      vertex 13.0835 17.3703 0
    endloop
  endfacet
  facet normal 0 0 -1
    outer loop
      vertex 13.0835 17.3703 0
      vertex 2 28 0
      vertex 13.3732 18.527 0
    endloop
  endfacet
  facet normal 0 0 -1
    outer loop
      vertex 13.3732 18.527 0
      vertex 2 28 0
      vertex 13.7749 19.6496 0
    endloop
  endfacet
  facet normal 0 0 -1
    outer loop
      vertex 13.7749 19.6496 0
      vertex 2 28 0
      vertex 14.2847 20.7275 0
    endloop
  endfacet
  facet normal 0 0 -1
    outer loop
      vertex 25 27.15 0
      vertex 2 28 0
      vertex 48 28 0
    endloop
  endfacet
  facet normal 0 0 -1
    outer loop
      vertex 23.8091 27.0915 0
      vertex 2 28 0
      vertex 25 27.15 0
    endloop
  endfacet
  facet normal 0 0 -1
    outer loop
      vertex 22.6297 26.9165 0
      vertex 2 28 0
      vertex 23.8091 27.0915 0
    endloop
  endfacet
  facet normal 0 0 -1
    outer loop
      vertex 21.473 26.6268 0
      vertex 2 28 0
      vertex 22.6297 26.9165 0
    endloop
  endfacet
  facet normal 0 0 -1
    outer loop
      vertex 20.3504 26.2251 0
      vertex 2 28 0
      vertex 21.473 26.6268 0
    endloop
  endfacet
  facet normal 0 0 -1
    outer loop
      vertex 19.2725 25.7153 0
      vertex 2 28 0
      vertex 20.3504 26.2251 0
    endloop
  endfacet
  facet normal 0 0 -1
    outer loop
      vertex 18.2498 25.1024 0
      vertex 2 28 0
      vertex 19.2725 25.7153 0
    endloop
  endfacet
  facet normal 0 0 -1
    outer loop
      vertex 17.2921 24.3921 0
      vertex 2 28 0
      vertex 18.2498 25.1024 0
    endloop
  endfacet
  facet normal 0 0 -1
    outer loop
      vertex 16.4087 23.5913 0
      vertex 2 28 0
      vertex 17.2921 24.3921 0
    endloop
  endfacet
  facet normal 0 0 -1
    outer loop
      vertex 15.6079 22.7079 0
      vertex 2 28 0
      vertex 16.4087 23.5913 0
    endloop
  endfacet
  facet normal 0 0 -1
    outer loop
      vertex 14.8976 21.7502 0
      vertex 2 28 0
      vertex 15.6079 22.7079 0
    endloop
  endfacet
  facet normal 0 0 -1
    outer loop
      vertex 14.2847 20.7275 0
      vertex 2 28 0
      vertex 14.8976 21.7502 0
    endloop
  endfacet
  facet normal 0 0 -1
    outer loop
      vertex 0.0369349 2.5307 0
      vertex 0.2 1.94458 0
      vertex 0.14683 2.07295 0
    endloop
  endfacet
  facet normal 0 0 -1
    outer loop
      vertex 0.2 1.94458 0
      vertex 0 3 0
      vertex 0.2 28.0554 0
    endloop
  endfacet
  facet normal 0 0 -1
    outer loop
      vertex 0.2 1.94458 0
      vertex 0.0369349 2.5307 0
      vertex 0 3 0
    endloop
  endfacet
  facet normal 0 0 -1
    outer loop
      vertex 0 27 0
      vertex 0.2 28.0554 0
      vertex 0 3 0
    endloop
  endfacet
  facet normal 0 -0 -1
    outer loop
      vertex 0.0369349 27.4693 0
      vertex 0.2 28.0554 0
      vertex 0 27 0
    endloop
  endfacet
  facet normal 0 0 -1
    outer loop
      vertex 0.2 28.0554 0
      vertex 0.0369349 27.4693 0
      vertex 0.14683 27.9271 0
    endloop
  endfacet
  facet normal 0 0 -1
    outer loop
      vertex 49.8 1.94458 0
      vertex 50 3 0
      vertex 49.9631 2.5307 0
    endloop
  endfacet
  facet normal -0 0 -1
    outer loop
      vertex 50 3 0
      vertex 49.8 1.94458 0
      vertex 50 27 0
    endloop
  endfacet
  facet normal 0 0 -1
    outer loop
      vertex 49.8 1.94458 0
      vertex 49.9631 2.5307 0
      vertex 49.8532 2.07295 0
    endloop
  endfacet
  facet normal 0 0 -1
    outer loop
      vertex 49.8 28.0554 0
      vertex 50 27 0
      vertex 49.8 1.94458 0
    endloop
  endfacet
  facet normal 0 0 -1
    outer loop
      vertex 50 27 0
      vertex 49.8 28.0554 0
      vertex 49.9631 27.4693 0
    endloop
  endfacet
  facet normal 0 0 -1
    outer loop
      vertex 49.9631 27.4693 0
      vertex 49.8 28.0554 0
      vertex 49.8532 27.9271 0
    endloop
  endfacet
  facet normal 0 0 -1
    outer loop
      vertex 47.4693 0.0369349 0
      vertex 48.0554 0.2 0
      vertex 47.9271 0.14683 0
    endloop
  endfacet
  facet normal 0 0 -1
    outer loop
      vertex 47 0 0
      vertex 48.0554 0.2 0
      vertex 47.4693 0.0369349 0
    endloop
  endfacet
  facet normal 0 0 -1
    outer loop
      vertex 3 0 0
      vertex 48.0554 0.2 0
      vertex 47 0 0
    endloop
  endfacet
  facet normal 0 0 -1
    outer loop
      vertex 1.94458 0.2 0
      vertex 3 0 0
      vertex 2.5307 0.0369349 0
    endloop
  endfacet
  facet normal 0 0 -1
    outer loop
      vertex 1.94458 0.2 0
      vertex 2.5307 0.0369349 0
      vertex 2.07295 0.14683 0
    endloop
  endfacet
  facet normal 0 0 -1
    outer loop
      vertex 3 0 0
      vertex 1.94458 0.2 0
      vertex 48.0554 0.2 0
    endloop
  endfacet
  facet normal 0 0 -1
    outer loop
      vertex 48.0554 29.8 0
      vertex 47.4693 29.9631 0
      vertex 47.9271 29.8532 0
    endloop
  endfacet
  facet normal 0 0 -1
    outer loop
      vertex 48.0554 29.8 0
      vertex 47 30 0
      vertex 47.4693 29.9631 0
    endloop
  endfacet
  facet normal 0 0 -1
    outer loop
      vertex 48.0554 29.8 0
      vertex 3 30 0
      vertex 47 30 0
    endloop
  endfacet
  facet normal 0 0 -1
    outer loop
      vertex 1.94458 29.8 0
      vertex 3 30 0
      vertex 48.0554 29.8 0
    endloop
  endfacet
  facet normal 0 0 -1
    outer loop
      vertex 3 30 0
      vertex 1.94458 29.8 0
      vertex 2.5307 29.9631 0
    endloop
  endfacet
  facet normal 0 0 -1
    outer loop
      vertex 2.5307 29.9631 0
      vertex 1.94458 29.8 0
      vertex 2.07295 29.8532 0
    endloop
  endfacet
  facet normal 1 -0 0
    outer loop
      vertex 50 3 1.2
      vertex 50 27 0
      vertex 50 27 1.2
    endloop
  endfacet
  facet normal 1 0 0
    outer loop
      vertex 50 27 0
      vertex 50 3 1.2
      vertex 50 3 0
    endloop
  endfacet
  facet normal 0.522483 -0.85265 0
    outer loop
      vertex 48.362 0.32698 0
      vertex 48.7634 0.572948 1.2
      vertex 48.362 0.32698 1.2
    endloop
  endfacet
  facet normal 0.522483 -0.85265 0
    outer loop
      vertex 48.7634 0.572948 1.2
      vertex 48.362 0.32698 0
      vertex 48.7634 0.572948 0
    endloop
  endfacet
  facet normal -0.522492 -0.852644 0
    outer loop
      vertex 1.23664 0.572948 0
      vertex 1.63803 0.32698 1.2
      vertex 1.23664 0.572948 1.2
    endloop
  endfacet
  facet normal -0.522492 -0.852644 -0
    outer loop
      vertex 1.63803 0.32698 1.2
      vertex 1.23664 0.572948 0
      vertex 1.63803 0.32698 0
    endloop
  endfacet
  facet normal -0.382852 0.92381 0
    outer loop
      vertex 1.94458 29.8 0
      vertex 2.07295 29.8532 1.2
      vertex 2.07295 29.8532 0
    endloop
  endfacet
  facet normal -0.382775 0.923842 -9.68265e-06
    outer loop
      vertex 2.07295 29.8532 1.2
      vertex 1.94458 29.8 0
      vertex 1.63803 29.673 1.2
    endloop
  endfacet
  facet normal -0.382742 0.923855 0
    outer loop
      vertex 1.63803 29.673 1.2
      vertex 1.94458 29.8 0
      vertex 1.63803 29.673 0
    endloop
  endfacet
  facet normal -0.649537 0.76033 0
    outer loop
      vertex 1.23664 29.4271 0
      vertex 0.878679 29.1213 1.2
      vertex 1.23664 29.4271 1.2
    endloop
  endfacet
  facet normal -0.649537 0.76033 0
    outer loop
      vertex 0.878679 29.1213 1.2
      vertex 1.23664 29.4271 0
      vertex 0.878679 29.1213 0
    endloop
  endfacet
  facet normal -0.923899 0.382637 0
    outer loop
      vertex 0.2 28.0554 0
      vertex 0.32698 28.362 1.2
      vertex 0.32698 28.362 0
    endloop
  endfacet
  facet normal -0.923812 0.382846 0
    outer loop
      vertex 0.14683 27.9271 1.2
      vertex 0.2 28.0554 0
      vertex 0.14683 27.9271 0
    endloop
  endfacet
  facet normal -0.923873 0.382699 -1.83897e-05
    outer loop
      vertex 0.2 28.0554 0
      vertex 0.14683 27.9271 1.2
      vertex 0.32698 28.362 1.2
    endloop
  endfacet
  facet normal -0.85265 0.522483 0
    outer loop
      vertex 0.32698 28.362 0
      vertex 0.572948 28.7634 1.2
      vertex 0.572948 28.7634 0
    endloop
  endfacet
  facet normal -0.85265 0.522483 0
    outer loop
      vertex 0.572948 28.7634 1.2
      vertex 0.32698 28.362 0
      vertex 0.32698 28.362 1.2
    endloop
  endfacet
  facet normal -0.760348 0.649516 0
    outer loop
      vertex 0.572948 28.7634 0
      vertex 0.878679 29.1213 1.2
      vertex 0.878679 29.1213 0
    endloop
  endfacet
  facet normal -0.760348 0.649516 0
    outer loop
      vertex 0.878679 29.1213 1.2
      vertex 0.572948 28.7634 0
      vertex 0.572948 28.7634 1.2
    endloop
  endfacet
  facet normal 0.76033 -0.649537 0
    outer loop
      vertex 49.1213 0.878679 1.2
      vertex 49.4271 1.23664 0
      vertex 49.4271 1.23664 1.2
    endloop
  endfacet
  facet normal 0.76033 -0.649537 0
    outer loop
      vertex 49.4271 1.23664 0
      vertex 49.1213 0.878679 1.2
      vertex 49.1213 0.878679 0
    endloop
  endfacet
  facet normal 0.649516 -0.760348 0
    outer loop
      vertex 48.7634 0.572948 0
      vertex 49.1213 0.878679 1.2
      vertex 48.7634 0.572948 1.2
    endloop
  endfacet
  facet normal 0.649516 -0.760348 0
    outer loop
      vertex 49.1213 0.878679 1.2
      vertex 48.7634 0.572948 0
      vertex 49.1213 0.878679 0
    endloop
  endfacet
  facet normal 0.852708 -0.522387 0
    outer loop
      vertex 49.4271 1.23664 1.2
      vertex 49.673 1.63803 0
      vertex 49.673 1.63803 1.2
    endloop
  endfacet
  facet normal 0.852708 -0.522387 0
    outer loop
      vertex 49.673 1.63803 0
      vertex 49.4271 1.23664 1.2
      vertex 49.4271 1.23664 0
    endloop
  endfacet
  facet normal 0.92381 -0.382852 0
    outer loop
      vertex 49.8532 2.07295 1.2
      vertex 49.8 1.94458 0
      vertex 49.8532 2.07295 0
    endloop
  endfacet
  facet normal 0.923842 -0.382775 -9.68265e-06
    outer loop
      vertex 49.673 1.63803 1.2
      vertex 49.8 1.94458 0
      vertex 49.8532 2.07295 1.2
    endloop
  endfacet
  facet normal 0.923855 -0.382742 0
    outer loop
      vertex 49.8 1.94458 0
      vertex 49.673 1.63803 1.2
      vertex 49.673 1.63803 0
    endloop
  endfacet
  facet normal 0.382846 -0.923812 0
    outer loop
      vertex 48.0554 0.2 0
      vertex 47.9271 0.14683 1.2
      vertex 47.9271 0.14683 0
    endloop
  endfacet
  facet normal 0.382699 -0.923873 -1.83897e-05
    outer loop
      vertex 47.9271 0.14683 1.2
      vertex 48.0554 0.2 0
      vertex 48.362 0.32698 1.2
    endloop
  endfacet
  facet normal 0.382637 -0.923899 0
    outer loop
      vertex 48.362 0.32698 1.2
      vertex 48.0554 0.2 0
      vertex 48.362 0.32698 0
    endloop
  endfacet
  facet normal 0.233419 -0.972376 0
    outer loop
      vertex 47.4693 0.0369349 0
      vertex 47.9271 0.14683 1.2
      vertex 47.4693 0.0369349 1.2
    endloop
  endfacet
  facet normal 0.233419 -0.972376 0
    outer loop
      vertex 47.9271 0.14683 1.2
      vertex 47.4693 0.0369349 0
      vertex 47.9271 0.14683 0
    endloop
  endfacet
  facet normal -0.233443 -0.97237 0
    outer loop
      vertex 2.07295 0.14683 0
      vertex 2.5307 0.0369349 1.2
      vertex 2.07295 0.14683 1.2
    endloop
  endfacet
  facet normal -0.233443 -0.97237 -0
    outer loop
      vertex 2.5307 0.0369349 1.2
      vertex 2.07295 0.14683 0
      vertex 2.5307 0.0369349 0
    endloop
  endfacet
  facet normal -0.760402 -0.649452 0
    outer loop
      vertex 0.878679 0.878679 0
      vertex 0.572948 1.23664 1.2
      vertex 0.572948 1.23664 0
    endloop
  endfacet
  facet normal -0.760402 -0.649452 0
    outer loop
      vertex 0.572948 1.23664 1.2
      vertex 0.878679 0.878679 0
      vertex 0.878679 0.878679 1.2
    endloop
  endfacet
  facet normal -0.852644 -0.522492 0
    outer loop
      vertex 0.572948 1.23664 0
      vertex 0.32698 1.63803 1.2
      vertex 0.32698 1.63803 0
    endloop
  endfacet
  facet normal -0.852644 -0.522492 0
    outer loop
      vertex 0.32698 1.63803 1.2
      vertex 0.572948 1.23664 0
      vertex 0.572948 1.23664 1.2
    endloop
  endfacet
  facet normal -0.97237 -0.233443 0
    outer loop
      vertex 0.14683 2.07295 0
      vertex 0.0369349 2.5307 1.2
      vertex 0.0369349 2.5307 0
    endloop
  endfacet
  facet normal -0.97237 -0.233443 0
    outer loop
      vertex 0.0369349 2.5307 1.2
      vertex 0.14683 2.07295 0
      vertex 0.14683 2.07295 1.2
    endloop
  endfacet
  facet normal -0.923886 -0.382667 0
    outer loop
      vertex 0.2 1.94458 0
      vertex 0.14683 2.07295 1.2
      vertex 0.14683 2.07295 0
    endloop
  endfacet
  facet normal -0.923877 -0.382691 -0
    outer loop
      vertex 0.32698 1.63803 1.2
      vertex 0.2 1.94458 0
      vertex 0.32698 1.63803 0
    endloop
  endfacet
  facet normal -0.923879 -0.382684 2.05185e-06
    outer loop
      vertex 0.2 1.94458 0
      vertex 0.32698 1.63803 1.2
      vertex 0.14683 2.07295 1.2
    endloop
  endfacet
  facet normal 0.382689 0.923877 0
    outer loop
      vertex 48.0554 29.8 0
      vertex 48.362 29.673 1.2
      vertex 48.362 29.673 0
    endloop
  endfacet
  facet normal 0.38279 0.923836 -3.01289e-05
    outer loop
      vertex 48.362 29.673 1.2
      vertex 48.0554 29.8 0
      vertex 47.9271 29.8532 1.2
    endloop
  endfacet
  facet normal 0.38303 0.923736 0
    outer loop
      vertex 47.9271 29.8532 1.2
      vertex 48.0554 29.8 0
      vertex 47.9271 29.8532 0
    endloop
  endfacet
  facet normal -0.0783858 0.996923 0
    outer loop
      vertex 3 30 0
      vertex 2.5307 29.9631 1.2
      vertex 3 30 1.2
    endloop
  endfacet
  facet normal -0.0783858 0.996923 0
    outer loop
      vertex 2.5307 29.9631 1.2
      vertex 3 30 0
      vertex 2.5307 29.9631 0
    endloop
  endfacet
  facet normal -0.996917 0.0784595 0
    outer loop
      vertex 0 27 0
      vertex 0.0369349 27.4693 1.2
      vertex 0.0369349 27.4693 0
    endloop
  endfacet
  facet normal -0.996917 0.0784595 0
    outer loop
      vertex 0.0369349 27.4693 1.2
      vertex 0 27 0
      vertex 0 27 1.2
    endloop
  endfacet
  facet normal -0.972376 0.233419 0
    outer loop
      vertex 0.0369349 27.4693 0
      vertex 0.14683 27.9271 1.2
      vertex 0.14683 27.9271 0
    endloop
  endfacet
  facet normal -0.972376 0.233419 0
    outer loop
      vertex 0.14683 27.9271 1.2
      vertex 0.0369349 27.4693 0
      vertex 0.0369349 27.4693 1.2
    endloop
  endfacet
  facet normal -0.522387 0.852708 0
    outer loop
      vertex 1.63803 29.673 0
      vertex 1.23664 29.4271 1.2
      vertex 1.63803 29.673 1.2
    endloop
  endfacet
  facet normal -0.522387 0.852708 0
    outer loop
      vertex 1.23664 29.4271 1.2
      vertex 1.63803 29.673 0
      vertex 1.23664 29.4271 0
    endloop
  endfacet
  facet normal 0.972368 -0.233453 0
    outer loop
      vertex 49.8532 2.07295 1.2
      vertex 49.9631 2.5307 0
      vertex 49.9631 2.5307 1.2
    endloop
  endfacet
  facet normal 0.972368 -0.233453 0
    outer loop
      vertex 49.9631 2.5307 0
      vertex 49.8532 2.07295 1.2
      vertex 49.8532 2.07295 0
    endloop
  endfacet
  facet normal 0.996923 -0.0783858 0
    outer loop
      vertex 49.9631 2.5307 1.2
      vertex 50 3 0
      vertex 50 3 1.2
    endloop
  endfacet
  facet normal 0.996923 -0.0783858 0
    outer loop
      vertex 50 3 0
      vertex 49.9631 2.5307 1.2
      vertex 49.9631 2.5307 0
    endloop
  endfacet
  facet normal -0.382691 -0.923877 0
    outer loop
      vertex 1.94458 0.2 0
      vertex 1.63803 0.32698 1.2
      vertex 1.63803 0.32698 0
    endloop
  endfacet
  facet normal -0.382684 -0.923879 2.05185e-06
    outer loop
      vertex 1.63803 0.32698 1.2
      vertex 1.94458 0.2 0
      vertex 2.07295 0.14683 1.2
    endloop
  endfacet
  facet normal -0.382667 -0.923886 -0
    outer loop
      vertex 2.07295 0.14683 1.2
      vertex 1.94458 0.2 0
      vertex 2.07295 0.14683 0
    endloop
  endfacet
  facet normal -0.0784595 -0.996917 0
    outer loop
      vertex 2.5307 0.0369349 0
      vertex 3 0 1.2
      vertex 2.5307 0.0369349 1.2
    endloop
  endfacet
  facet normal -0.0784595 -0.996917 -0
    outer loop
      vertex 3 0 1.2
      vertex 2.5307 0.0369349 0
      vertex 3 0 0
    endloop
  endfacet
  facet normal 0.0783858 0.996923 -0
    outer loop
      vertex 47.4693 29.9631 0
      vertex 47 30 1.2
      vertex 47.4693 29.9631 1.2
    endloop
  endfacet
  facet normal 0.0783858 0.996923 0
    outer loop
      vertex 47 30 1.2
      vertex 47.4693 29.9631 0
      vertex 47 30 0
    endloop
  endfacet
  facet normal 0.233429 0.972374 -0
    outer loop
      vertex 47.9271 29.8532 0
      vertex 47.4693 29.9631 1.2
      vertex 47.9271 29.8532 1.2
    endloop
  endfacet
  facet normal 0.233429 0.972374 0
    outer loop
      vertex 47.4693 29.9631 1.2
      vertex 47.9271 29.8532 0
      vertex 47.4693 29.9631 0
    endloop
  endfacet
  facet normal -0.233453 0.972368 0
    outer loop
      vertex 2.5307 29.9631 0
      vertex 2.07295 29.8532 1.2
      vertex 2.5307 29.9631 1.2
    endloop
  endfacet
  facet normal -0.233453 0.972368 0
    outer loop
      vertex 2.07295 29.8532 1.2
      vertex 2.5307 29.9631 0
      vertex 2.07295 29.8532 0
    endloop
  endfacet
  facet normal 0.649601 0.760275 -0
    outer loop
      vertex 49.1213 29.1213 0
      vertex 48.7634 29.4271 1.2
      vertex 49.1213 29.1213 1.2
    endloop
  endfacet
  facet normal 0.649601 0.760275 0
    outer loop
      vertex 48.7634 29.4271 1.2
      vertex 49.1213 29.1213 0
      vertex 48.7634 29.4271 0
    endloop
  endfacet
  facet normal 0.852714 0.522378 0
    outer loop
      vertex 49.673 28.362 1.2
      vertex 49.4271 28.7634 0
      vertex 49.4271 28.7634 1.2
    endloop
  endfacet
  facet normal 0.852714 0.522378 0
    outer loop
      vertex 49.4271 28.7634 0
      vertex 49.673 28.362 1.2
      vertex 49.673 28.362 0
    endloop
  endfacet
  facet normal 0.972374 0.233429 0
    outer loop
      vertex 49.9631 27.4693 1.2
      vertex 49.8532 27.9271 0
      vertex 49.8532 27.9271 1.2
    endloop
  endfacet
  facet normal 0.972374 0.233429 0
    outer loop
      vertex 49.8532 27.9271 0
      vertex 49.9631 27.4693 1.2
      vertex 49.9631 27.4693 0
    endloop
  endfacet
  facet normal -0.649452 -0.760402 0
    outer loop
      vertex 0.878679 0.878679 0
      vertex 1.23664 0.572948 1.2
      vertex 0.878679 0.878679 1.2
    endloop
  endfacet
  facet normal -0.649452 -0.760402 -0
    outer loop
      vertex 1.23664 0.572948 1.2
      vertex 0.878679 0.878679 0
      vertex 1.23664 0.572948 0
    endloop
  endfacet
  facet normal 0.760275 0.649601 0
    outer loop
      vertex 49.4271 28.7634 1.2
      vertex 49.1213 29.1213 0
      vertex 49.1213 29.1213 1.2
    endloop
  endfacet
  facet normal 0.760275 0.649601 0
    outer loop
      vertex 49.1213 29.1213 0
      vertex 49.4271 28.7634 1.2
      vertex 49.4271 28.7634 0
    endloop
  endfacet
  facet normal 0.923877 0.382689 0
    outer loop
      vertex 49.673 28.362 1.2
      vertex 49.8 28.0554 0
      vertex 49.673 28.362 0
    endloop
  endfacet
  facet normal 0.923836 0.38279 -3.01289e-05
    outer loop
      vertex 49.8532 27.9271 1.2
      vertex 49.8 28.0554 0
      vertex 49.673 28.362 1.2
    endloop
  endfacet
  facet normal 0.923736 0.38303 0
    outer loop
      vertex 49.8 28.0554 0
      vertex 49.8532 27.9271 1.2
      vertex 49.8532 27.9271 0
    endloop
  endfacet
  facet normal 0 0 1
    outer loop
      vertex 28.1463 18.9113 0.799999
      vertex 27.7339 18.499 0.799999
      vertex 28.1463 11.2675 0.799999
    endloop
  endfacet
  facet normal 0 0 1
    outer loop
      vertex 28.1463 18.9113 0.799999
      vertex 22.4554 18.499 0.799999
      vertex 27.7339 18.499 0.799999
    endloop
  endfacet
  facet normal 0 0 1
    outer loop
      vertex 22.4554 18.499 0.799999
      vertex 22.0431 18.9113 0.799999
      vertex 22.4554 11.6798 0.799999
    endloop
  endfacet
  facet normal -0 0 1
    outer loop
      vertex 22.0431 18.9113 0.799999
      vertex 22.4554 18.499 0.799999
      vertex 28.1463 18.9113 0.799999
    endloop
  endfacet
  facet normal -0 0 1
    outer loop
      vertex 27.7339 11.6798 0.799999
      vertex 28.1463 11.2675 0.799999
      vertex 27.7339 18.499 0.799999
    endloop
  endfacet
  facet normal -0 0 1
    outer loop
      vertex 22.4554 11.6798 0.799999
      vertex 28.1463 11.2675 0.799999
      vertex 27.7339 11.6798 0.799999
    endloop
  endfacet
  facet normal 0 0 1
    outer loop
      vertex 22.4554 11.6798 0.799999
      vertex 22.0431 11.2675 0.799999
      vertex 28.1463 11.2675 0.799999
    endloop
  endfacet
  facet normal 0 0 1
    outer loop
      vertex 22.0431 11.2675 0.799999
      vertex 22.4554 11.6798 0.799999
      vertex 22.0431 18.9113 0.799999
    endloop
  endfacet
  facet normal 0 -1 0
    outer loop
      vertex 22.0431 18.9113 0.799999
      vertex 28.1463 18.9113 1.2
      vertex 22.0431 18.9113 1.2
    endloop
  endfacet
  facet normal 0 -1 -0
    outer loop
      vertex 28.1463 18.9113 1.2
      vertex 22.0431 18.9113 0.799999
      vertex 28.1463 18.9113 0.799999
    endloop
  endfacet
  facet normal 1 -0 0
    outer loop
      vertex 22.0431 11.2675 1.2
      vertex 22.0431 18.9113 0.799999
      vertex 22.0431 18.9113 1.2
    endloop
  endfacet
  facet normal 1 0 0
    outer loop
      vertex 22.0431 18.9113 0.799999
      vertex 22.0431 11.2675 1.2
      vertex 22.0431 11.2675 0.799999
    endloop
  endfacet
  facet normal 0 1 -0
    outer loop
      vertex 28.1463 11.2675 0.799999
      vertex 22.0431 11.2675 1.2
      vertex 28.1463 11.2675 1.2
    endloop
  endfacet
  facet normal 0 1 0
    outer loop
      vertex 22.0431 11.2675 1.2
      vertex 28.1463 11.2675 0.799999
      vertex 22.0431 11.2675 0.799999
    endloop
  endfacet
  facet normal -1 0 0
    outer loop
      vertex 28.1463 11.2675 0.799999
      vertex 28.1463 18.9113 1.2
      vertex 28.1463 18.9113 0.799999
    endloop
  endfacet
  facet normal -1 -0 0
    outer loop
      vertex 28.1463 18.9113 1.2
      vertex 28.1463 11.2675 0.799999
      vertex 28.1463 11.2675 1.2
    endloop
  endfacet
  facet normal -1 0 0
    outer loop
      vertex 22.4554 11.6798 0.799999
      vertex 22.4554 18.499 1.2
      vertex 22.4554 18.499 0.799999
    endloop
  endfacet
  facet normal -1 -0 0
    outer loop
      vertex 22.4554 18.499 1.2
      vertex 22.4554 11.6798 0.799999
      vertex 22.4554 11.6798 1.2
    endloop
  endfacet
  facet normal 0 1 -0
    outer loop
      vertex 27.7339 18.499 0.799999
      vertex 22.4554 18.499 1.2
      vertex 27.7339 18.499 1.2
    endloop
  endfacet
  facet normal 0 1 0
    outer loop
      vertex 22.4554 18.499 1.2
      vertex 27.7339 18.499 0.799999
      vertex 22.4554 18.499 0.799999
    endloop
  endfacet
  facet normal 1 -0 0
    outer loop
      vertex 27.7339 11.6798 1.2
      vertex 27.7339 18.499 0.799999
      vertex 27.7339 18.499 1.2
    endloop
  endfacet
  facet normal 1 0 0
    outer loop
      vertex 27.7339 18.499 0.799999
      vertex 27.7339 11.6798 1.2
      vertex 27.7339 11.6798 0.799999
    endloop
  endfacet
  facet normal 0 -1 0
    outer loop
      vertex 22.4554 11.6798 0.799999
      vertex 27.7339 11.6798 1.2
      vertex 22.4554 11.6798 1.2
    endloop
  endfacet
  facet normal 0 -1 -0
    outer loop
      vertex 27.7339 11.6798 1.2
      vertex 22.4554 11.6798 0.799999
      vertex 27.7339 11.6798 0.799999
    endloop
  endfacet
  facet normal -1 0 0
    outer loop
      vertex 0.2 29.8 -4
      vertex 0.2 28.0554 0
      vertex 0.2 29.8 0
    endloop
  endfacet
  facet normal -1 0 0
    outer loop
      vertex 0.2 29.8 -4
      vertex 0.2 1.94458 0
      vertex 0.2 28.0554 0
    endloop
  endfacet
  facet normal -1 0 0
    outer loop
      vertex 0.2 0.2 -4
      vertex 0.2 1.94458 0
      vertex 0.2 29.8 -4
    endloop
  endfacet
  facet normal -1 -0 0
    outer loop
      vertex 0.2 1.94458 0
      vertex 0.2 0.2 -4
      vertex 0.2 0.2 0
    endloop
  endfacet
  facet normal 1 -0 0
    outer loop
      vertex 49.8 28.0554 0
      vertex 49.8 29.8 -4
      vertex 49.8 29.8 0
    endloop
  endfacet
  facet normal 1 -0 0
    outer loop
      vertex 49.8 1.94458 0
      vertex 49.8 29.8 -4
      vertex 49.8 28.0554 0
    endloop
  endfacet
  facet normal 1 0 0
    outer loop
      vertex 49.8 0.2 -4
      vertex 49.8 1.94458 0
      vertex 49.8 0.2 0
    endloop
  endfacet
  facet normal 1 0 0
    outer loop
      vertex 49.8 1.94458 0
      vertex 49.8 0.2 -4
      vertex 49.8 29.8 -4
    endloop
  endfacet
  facet normal 0 0 -1
    outer loop
      vertex 49.8 0.2 -4
      vertex 48 2 -4
      vertex 49.8 29.8 -4
    endloop
  endfacet
  facet normal 0 0 -1
    outer loop
      vertex 49.8 0.2 -4
      vertex 2 2 -4
      vertex 48 2 -4
    endloop
  endfacet
  facet normal -0 0 -1
    outer loop
      vertex 2 2 -4
      vertex 0.2 0.2 -4
      vertex 2 28 -4
    endloop
  endfacet
  facet normal 0 0 -1
    outer loop
      vertex 0.2 0.2 -4
      vertex 2 2 -4
      vertex 49.8 0.2 -4
    endloop
  endfacet
  facet normal 0 0 -1
    outer loop
      vertex 48 28 -4
      vertex 49.8 29.8 -4
      vertex 48 2 -4
    endloop
  endfacet
  facet normal 0 0 -1
    outer loop
      vertex 2 28 -4
      vertex 49.8 29.8 -4
      vertex 48 28 -4
    endloop
  endfacet
  facet normal 0 0 -1
    outer loop
      vertex 2 28 -4
      vertex 0.2 29.8 -4
      vertex 49.8 29.8 -4
    endloop
  endfacet
  facet normal 0 0 -1
    outer loop
      vertex 0.2 29.8 -4
      vertex 2 28 -4
      vertex 0.2 0.2 -4
    endloop
  endfacet
  facet normal 0 -1 0
    outer loop
      vertex 17 0.2 -3.5
      vertex 33 0.2 -2.5
      vertex 17 0.2 -2.5
    endloop
  endfacet
  facet normal 0 -1 -0
    outer loop
      vertex 33 0.2 -2.5
      vertex 17 0.2 -3.5
      vertex 33 0.2 -3.5
    endloop
  endfacet
  facet normal 0 -1 0
    outer loop
      vertex 0.2 0.2 -4
      vertex 1.94458 0.2 0
      vertex 0.2 0.2 0
    endloop
  endfacet
  facet normal 0 -1 0
    outer loop
      vertex 1.94458 0.2 0
      vertex 17 0.2 -2.5
      vertex 48.0554 0.2 0
    endloop
  endfacet
  facet normal 0 -1 0
    outer loop
      vertex 1.94458 0.2 0
      vertex 13 0.2 -2.5
      vertex 17 0.2 -2.5
    endloop
  endfacet
  facet normal -0 -1 0
    outer loop
      vertex 13 0.2 -3.5
      vertex 1.94458 0.2 0
      vertex 0.2 0.2 -4
    endloop
  endfacet
  facet normal 0 -1 0
    outer loop
      vertex 0.2 0.2 -4
      vertex 17 0.2 -3.5
      vertex 13 0.2 -3.5
    endloop
  endfacet
  facet normal 0 -1 -0
    outer loop
      vertex 17 0.2 -3.5
      vertex 0.2 0.2 -4
      vertex 33 0.2 -3.5
    endloop
  endfacet
  facet normal 0 -1 0
    outer loop
      vertex 49.8 0.2 -4
      vertex 33 0.2 -3.5
      vertex 0.2 0.2 -4
    endloop
  endfacet
  facet normal 0 -1 0
    outer loop
      vertex 1.94458 0.2 0
      vertex 13 0.2 -3.5
      vertex 13 0.2 -2.5
    endloop
  endfacet
  facet normal 0 -1 0
    outer loop
      vertex 33 0.2 -2.5
      vertex 48.0554 0.2 0
      vertex 17 0.2 -2.5
    endloop
  endfacet
  facet normal 0 -1 0
    outer loop
      vertex 37 0.2 -2.5
      vertex 48.0554 0.2 0
      vertex 33 0.2 -2.5
    endloop
  endfacet
  facet normal 0 -1 0
    outer loop
      vertex 37 0.2 -3.5
      vertex 48.0554 0.2 0
      vertex 37 0.2 -2.5
    endloop
  endfacet
  facet normal 0 -1 -0
    outer loop
      vertex 48.0554 0.2 0
      vertex 37 0.2 -3.5
      vertex 49.8 0.2 -4
    endloop
  endfacet
  facet normal 0 -1 0
    outer loop
      vertex 48.0554 0.2 0
      vertex 49.8 0.2 -4
      vertex 49.8 0.2 0
    endloop
  endfacet
  facet normal 0 -1 0
    outer loop
      vertex 33 0.2 -3.5
      vertex 49.8 0.2 -4
      vertex 37 0.2 -3.5
    endloop
  endfacet
  facet normal 0 1 -0
    outer loop
      vertex 49.8 29.8 -4
      vertex 48.0554 29.8 0
      vertex 49.8 29.8 0
    endloop
  endfacet
  facet normal 0 1 0
    outer loop
      vertex 48.0554 29.8 0
      vertex 49.8 29.8 -4
      vertex 1.94458 29.8 0
    endloop
  endfacet
  facet normal 0 1 0
    outer loop
      vertex 0.2 29.8 -4
      vertex 1.94458 29.8 0
      vertex 49.8 29.8 -4
    endloop
  endfacet
  facet normal 0 1 0
    outer loop
      vertex 1.94458 29.8 0
      vertex 0.2 29.8 -4
      vertex 0.2 29.8 0
    endloop
  endfacet
  facet normal 1 -0 0
    outer loop
      vertex 2 2 0
      vertex 2 28 -4
      vertex 2 28 0
    endloop
  endfacet
  facet normal 1 0 0
    outer loop
      vertex 2 28 -4
      vertex 2 2 0
      vertex 2 2 -4
    endloop
  endfacet
  facet normal -1 0 0
    outer loop
      vertex 48 2 -4
      vertex 48 28 0
      vertex 48 28 -4
    endloop
  endfacet
  facet normal -1 -0 0
    outer loop
      vertex 48 28 0
      vertex 48 2 -4
      vertex 48 2 0
    endloop
  endfacet
  facet normal 0 -1 0
    outer loop
      vertex 2 28 -4
      vertex 48 28 0
      vertex 2 28 0
    endloop
  endfacet
  facet normal 0 -1 -0
    outer loop
      vertex 48 28 0
      vertex 2 28 -4
      vertex 48 28 -4
    endloop
  endfacet
  facet normal 0 1 -0
    outer loop
      vertex 48 2 -4
      vertex 2 2 0
      vertex 48 2 0
    endloop
  endfacet
  facet normal 0 1 0
    outer loop
      vertex 2 2 0
      vertex 48 2 -4
      vertex 2 2 -4
    endloop
  endfacet
  facet normal -1 0 0
    outer loop
      vertex 13 -0.4 -3.5
      vertex 13 0.2 -2.5
      vertex 13 0.2 -3.5
    endloop
  endfacet
  facet normal -1 -0 0
    outer loop
      vertex 13 0.2 -2.5
      vertex 13 -0.4 -3.5
      vertex 13 -0.4 -2.5
    endloop
  endfacet
  facet normal -0 0 1
    outer loop
      vertex 13 0.2 -2.5
      vertex 17 -0.4 -2.5
      vertex 17 0.2 -2.5
    endloop
  endfacet
  facet normal 0 0 1
    outer loop
      vertex 17 -0.4 -2.5
      vertex 13 0.2 -2.5
      vertex 13 -0.4 -2.5
    endloop
  endfacet
  facet normal 1 -0 0
    outer loop
      vertex 17 -0.4 -2.5
      vertex 17 0.2 -3.5
      vertex 17 0.2 -2.5
    endloop
  endfacet
  facet normal 1 0 0
    outer loop
      vertex 17 0.2 -3.5
      vertex 17 -0.4 -2.5
      vertex 17 -0.4 -3.5
    endloop
  endfacet
  facet normal 0 0 -1
    outer loop
      vertex 13 -0.4 -3.5
      vertex 17 0.2 -3.5
      vertex 17 -0.4 -3.5
    endloop
  endfacet
  facet normal -0 0 -1
    outer loop
      vertex 17 0.2 -3.5
      vertex 13 -0.4 -3.5
      vertex 13 0.2 -3.5
    endloop
  endfacet
  facet normal 0 -1 0
    outer loop
      vertex 13 -0.4 -3.5
      vertex 17 -0.4 -2.5
      vertex 13 -0.4 -2.5
    endloop
  endfacet
  facet normal 0 -1 -0
    outer loop
      vertex 17 -0.4 -2.5
      vertex 13 -0.4 -3.5
      vertex 17 -0.4 -3.5
    endloop
  endfacet
  facet normal -1 0 0
    outer loop
      vertex 33 -0.4 -3.5
      vertex 33 0.2 -2.5
      vertex 33 0.2 -3.5
    endloop
  endfacet
  facet normal -1 -0 0
    outer loop
      vertex 33 0.2 -2.5
      vertex 33 -0.4 -3.5
      vertex 33 -0.4 -2.5
    endloop
  endfacet
  facet normal -0 0 1
    outer loop
      vertex 33 0.2 -2.5
      vertex 37 -0.4 -2.5
      vertex 37 0.2 -2.5
    endloop
  endfacet
  facet normal 0 0 1
    outer loop
      vertex 37 -0.4 -2.5
      vertex 33 0.2 -2.5
      vertex 33 -0.4 -2.5
    endloop
  endfacet
  facet normal 1 -0 0
    outer loop
      vertex 37 -0.4 -2.5
      vertex 37 0.2 -3.5
      vertex 37 0.2 -2.5
    endloop
  endfacet
  facet normal 1 0 0
    outer loop
      vertex 37 0.2 -3.5
      vertex 37 -0.4 -2.5
      vertex 37 -0.4 -3.5
    endloop
  endfacet
  facet normal 0 0 -1
    outer loop
      vertex 33 -0.4 -3.5
      vertex 37 0.2 -3.5
      vertex 37 -0.4 -3.5
    endloop
  endfacet
  facet normal -0 0 -1
    outer loop
      vertex 37 0.2 -3.5
      vertex 33 -0.4 -3.5
      vertex 33 0.2 -3.5
    endloop
  endfacet
  facet normal 0 -1 0
    outer loop
      vertex 33 -0.4 -3.5
      vertex 37 -0.4 -2.5
      vertex 33 -0.4 -2.5
    endloop
  endfacet
  facet normal 0 -1 -0
    outer loop
      vertex 37 -0.4 -2.5
      vertex 33 -0.4 -3.5
      vertex 37 -0.4 -3.5
    endloop
  endfacet
  facet normal 0.857759 0.514052 0
    outer loop
      vertex 35.7153 20.7275 0
      vertex 35.1024 21.7502 -3.5
      vertex 35.1024 21.7502 0
    endloop
  endfacet
  facet normal 0.857759 0.514052 0
    outer loop
      vertex 35.1024 21.7502 -3.5
      vertex 35.7153 20.7275 0
      vertex 35.7153 20.7275 -3.5
    endloop
  endfacet
  facet normal 0.33691 0.941537 -0
    outer loop
      vertex 29.6496 26.2251 -3.5
      vertex 28.527 26.6268 0
      vertex 29.6496 26.2251 0
    endloop
  endfacet
  facet normal 0.33691 0.941537 0
    outer loop
      vertex 28.527 26.6268 0
      vertex 29.6496 26.2251 -3.5
      vertex 28.527 26.6268 -3.5
    endloop
  endfacet
  facet normal -0.427549 0.903992 0
    outer loop
      vertex 20.3504 26.2251 -3.5
      vertex 19.2725 25.7153 0
      vertex 20.3504 26.2251 0
    endloop
  endfacet
  facet normal -0.427549 0.903992 0
    outer loop
      vertex 19.2725 25.7153 0
      vertex 20.3504 26.2251 -3.5
      vertex 19.2725 25.7153 -3.5
    endloop
  endfacet
  facet normal -0.941537 0.33691 0
    outer loop
      vertex 13.3732 18.527 -3.5
      vertex 13.7749 19.6496 0
      vertex 13.7749 19.6496 -3.5
    endloop
  endfacet
  facet normal -0.941537 0.33691 0
    outer loop
      vertex 13.7749 19.6496 0
      vertex 13.3732 18.527 -3.5
      vertex 13.3732 18.527 0
    endloop
  endfacet
  facet normal 0.998796 -0.0490634 0
    outer loop
      vertex 37.0915 13.8091 0
      vertex 37.15 15 -3.5
      vertex 37.15 15 0
    endloop
  endfacet
  facet normal 0.998796 -0.0490634 0
    outer loop
      vertex 37.15 15 -3.5
      vertex 37.0915 13.8091 0
      vertex 37.0915 13.8091 -3.5
    endloop
  endfacet
  facet normal 0.0490634 0.998796 -0
    outer loop
      vertex 26.1909 27.0915 -3.5
      vertex 25 27.15 0
      vertex 26.1909 27.0915 0
    endloop
  endfacet
  facet normal 0.0490634 0.998796 0
    outer loop
      vertex 25 27.15 0
      vertex 26.1909 27.0915 -3.5
      vertex 25 27.15 -3.5
    endloop
  endfacet
  facet normal 0.514052 0.857759 -0
    outer loop
      vertex 31.7502 25.1024 -3.5
      vertex 30.7275 25.7153 0
      vertex 31.7502 25.1024 0
    endloop
  endfacet
  facet normal 0.514052 0.857759 0
    outer loop
      vertex 30.7275 25.7153 0
      vertex 31.7502 25.1024 -3.5
      vertex 30.7275 25.7153 -3.5
    endloop
  endfacet
  facet normal 0 0 -1
    outer loop
      vertex 37.0915 13.8091 -3.5
      vertex 37.0915 16.1909 -3.5
      vertex 37.15 15 -3.5
    endloop
  endfacet
  facet normal 0 0 -1
    outer loop
      vertex 36.9165 12.6297 -3.5
      vertex 37.0915 16.1909 -3.5
      vertex 37.0915 13.8091 -3.5
    endloop
  endfacet
  facet normal 0 0 -1
    outer loop
      vertex 36.9165 12.6297 -3.5
      vertex 36.9165 17.3703 -3.5
      vertex 37.0915 16.1909 -3.5
    endloop
  endfacet
  facet normal 0 0 -1
    outer loop
      vertex 36.6268 11.473 -3.5
      vertex 36.9165 17.3703 -3.5
      vertex 36.9165 12.6297 -3.5
    endloop
  endfacet
  facet normal 0 0 -1
    outer loop
      vertex 36.6268 11.473 -3.5
      vertex 36.6268 18.527 -3.5
      vertex 36.9165 17.3703 -3.5
    endloop
  endfacet
  facet normal 0 0 -1
    outer loop
      vertex 36.2251 10.3504 -3.5
      vertex 36.6268 18.527 -3.5
      vertex 36.6268 11.473 -3.5
    endloop
  endfacet
  facet normal 0 0 -1
    outer loop
      vertex 36.2251 10.3504 -3.5
      vertex 36.2251 19.6496 -3.5
      vertex 36.6268 18.527 -3.5
    endloop
  endfacet
  facet normal 0 0 -1
    outer loop
      vertex 35.7153 9.27253 -3.5
      vertex 36.2251 19.6496 -3.5
      vertex 36.2251 10.3504 -3.5
    endloop
  endfacet
  facet normal 0 0 -1
    outer loop
      vertex 35.7153 9.27253 -3.5
      vertex 35.7153 20.7275 -3.5
      vertex 36.2251 19.6496 -3.5
    endloop
  endfacet
  facet normal 0 0 -1
    outer loop
      vertex 35.1024 8.24982 -3.5
      vertex 35.7153 20.7275 -3.5
      vertex 35.7153 9.27253 -3.5
    endloop
  endfacet
  facet normal 0 0 -1
    outer loop
      vertex 35.1024 8.24982 -3.5
      vertex 35.1024 21.7502 -3.5
      vertex 35.7153 20.7275 -3.5
    endloop
  endfacet
  facet normal 0 0 -1
    outer loop
      vertex 34.3921 7.29212 -3.5
      vertex 35.1024 21.7502 -3.5
      vertex 35.1024 8.24982 -3.5
    endloop
  endfacet
  facet normal 0 0 -1
    outer loop
      vertex 34.3921 7.29212 -3.5
      vertex 34.3921 22.7079 -3.5
      vertex 35.1024 21.7502 -3.5
    endloop
  endfacet
  facet normal 0 0 -1
    outer loop
      vertex 33.5913 6.40865 -3.5
      vertex 34.3921 22.7079 -3.5
      vertex 34.3921 7.29212 -3.5
    endloop
  endfacet
  facet normal 0 0 -1
    outer loop
      vertex 33.5913 6.40865 -3.5
      vertex 33.5913 23.5913 -3.5
      vertex 34.3921 22.7079 -3.5
    endloop
  endfacet
  facet normal 0 0 -1
    outer loop
      vertex 32.7079 5.60792 -3.5
      vertex 33.5913 23.5913 -3.5
      vertex 33.5913 6.40865 -3.5
    endloop
  endfacet
  facet normal 0 0 -1
    outer loop
      vertex 32.7079 5.60792 -3.5
      vertex 32.7079 24.3921 -3.5
      vertex 33.5913 23.5913 -3.5
    endloop
  endfacet
  facet normal 0 0 -1
    outer loop
      vertex 31.7502 4.89764 -3.5
      vertex 32.7079 24.3921 -3.5
      vertex 32.7079 5.60792 -3.5
    endloop
  endfacet
  facet normal 0 0 -1
    outer loop
      vertex 31.7502 4.89764 -3.5
      vertex 31.7502 25.1024 -3.5
      vertex 32.7079 24.3921 -3.5
    endloop
  endfacet
  facet normal 0 0 -1
    outer loop
      vertex 30.7275 4.28466 -3.5
      vertex 31.7502 25.1024 -3.5
      vertex 31.7502 4.89764 -3.5
    endloop
  endfacet
  facet normal 0 0 -1
    outer loop
      vertex 30.7275 4.28466 -3.5
      vertex 30.7275 25.7153 -3.5
      vertex 31.7502 25.1024 -3.5
    endloop
  endfacet
  facet normal 0 0 -1
    outer loop
      vertex 29.6496 3.77486 -3.5
      vertex 30.7275 25.7153 -3.5
      vertex 30.7275 4.28466 -3.5
    endloop
  endfacet
  facet normal 0 0 -1
    outer loop
      vertex 29.6496 3.77486 -3.5
      vertex 29.6496 26.2251 -3.5
      vertex 30.7275 25.7153 -3.5
    endloop
  endfacet
  facet normal 0 0 -1
    outer loop
      vertex 28.527 3.37317 -3.5
      vertex 29.6496 26.2251 -3.5
      vertex 29.6496 3.77486 -3.5
    endloop
  endfacet
  facet normal 0 0 -1
    outer loop
      vertex 28.527 3.37317 -3.5
      vertex 28.527 26.6268 -3.5
      vertex 29.6496 26.2251 -3.5
    endloop
  endfacet
  facet normal 0 0 -1
    outer loop
      vertex 27.3703 3.08346 -3.5
      vertex 28.527 26.6268 -3.5
      vertex 28.527 3.37317 -3.5
    endloop
  endfacet
  facet normal 0 0 -1
    outer loop
      vertex 27.3703 3.08346 -3.5
      vertex 27.3703 26.9165 -3.5
      vertex 28.527 26.6268 -3.5
    endloop
  endfacet
  facet normal 0 0 -1
    outer loop
      vertex 26.1909 2.90851 -3.5
      vertex 27.3703 26.9165 -3.5
      vertex 27.3703 3.08346 -3.5
    endloop
  endfacet
  facet normal 0 0 -1
    outer loop
      vertex 26.1909 2.90851 -3.5
      vertex 26.1909 27.0915 -3.5
      vertex 27.3703 26.9165 -3.5
    endloop
  endfacet
  facet normal 0 0 -1
    outer loop
      vertex 25 2.85 -3.5
      vertex 26.1909 27.0915 -3.5
      vertex 26.1909 2.90851 -3.5
    endloop
  endfacet
  facet normal 0 0 -1
    outer loop
      vertex 25 2.85 -3.5
      vertex 25 27.15 -3.5
      vertex 26.1909 27.0915 -3.5
    endloop
  endfacet
  facet normal 0 0 -1
    outer loop
      vertex 23.8091 2.90851 -3.5
      vertex 25 27.15 -3.5
      vertex 25 2.85 -3.5
    endloop
  endfacet
  facet normal 0 0 -1
    outer loop
      vertex 23.8091 2.90851 -3.5
      vertex 23.8091 27.0915 -3.5
      vertex 25 27.15 -3.5
    endloop
  endfacet
  facet normal 0 0 -1
    outer loop
      vertex 22.6297 3.08346 -3.5
      vertex 23.8091 27.0915 -3.5
      vertex 23.8091 2.90851 -3.5
    endloop
  endfacet
  facet normal 0 0 -1
    outer loop
      vertex 22.6297 3.08346 -3.5
      vertex 22.6297 26.9165 -3.5
      vertex 23.8091 27.0915 -3.5
    endloop
  endfacet
  facet normal 0 0 -1
    outer loop
      vertex 21.473 3.37317 -3.5
      vertex 22.6297 26.9165 -3.5
      vertex 22.6297 3.08346 -3.5
    endloop
  endfacet
  facet normal 0 0 -1
    outer loop
      vertex 21.473 3.37317 -3.5
      vertex 21.473 26.6268 -3.5
      vertex 22.6297 26.9165 -3.5
    endloop
  endfacet
  facet normal 0 0 -1
    outer loop
      vertex 20.3504 3.77486 -3.5
      vertex 21.473 26.6268 -3.5
      vertex 21.473 3.37317 -3.5
    endloop
  endfacet
  facet normal 0 0 -1
    outer loop
      vertex 20.3504 3.77486 -3.5
      vertex 20.3504 26.2251 -3.5
      vertex 21.473 26.6268 -3.5
    endloop
  endfacet
  facet normal 0 0 -1
    outer loop
      vertex 19.2725 4.28466 -3.5
      vertex 20.3504 26.2251 -3.5
      vertex 20.3504 3.77486 -3.5
    endloop
  endfacet
  facet normal 0 0 -1
    outer loop
      vertex 19.2725 4.28466 -3.5
      vertex 19.2725 25.7153 -3.5
      vertex 20.3504 26.2251 -3.5
    endloop
  endfacet
  facet normal 0 0 -1
    outer loop
      vertex 18.2498 4.89764 -3.5
      vertex 19.2725 25.7153 -3.5
      vertex 19.2725 4.28466 -3.5
    endloop
  endfacet
  facet normal 0 0 -1
    outer loop
      vertex 18.2498 4.89764 -3.5
      vertex 18.2498 25.1024 -3.5
      vertex 19.2725 25.7153 -3.5
    endloop
  endfacet
  facet normal 0 0 -1
    outer loop
      vertex 17.2921 5.60792 -3.5
      vertex 18.2498 25.1024 -3.5
      vertex 18.2498 4.89764 -3.5
    endloop
  endfacet
  facet normal 0 0 -1
    outer loop
      vertex 17.2921 5.60792 -3.5
      vertex 17.2921 24.3921 -3.5
      vertex 18.2498 25.1024 -3.5
    endloop
  endfacet
  facet normal 0 0 -1
    outer loop
      vertex 16.4087 6.40865 -3.5
      vertex 17.2921 24.3921 -3.5
      vertex 17.2921 5.60792 -3.5
    endloop
  endfacet
  facet normal 0 0 -1
    outer loop
      vertex 16.4087 6.40865 -3.5
      vertex 16.4087 23.5913 -3.5
      vertex 17.2921 24.3921 -3.5
    endloop
  endfacet
  facet normal 0 0 -1
    outer loop
      vertex 15.6079 7.29212 -3.5
      vertex 16.4087 23.5913 -3.5
      vertex 16.4087 6.40865 -3.5
    endloop
  endfacet
  facet normal 0 0 -1
    outer loop
      vertex 15.6079 7.29212 -3.5
      vertex 15.6079 22.7079 -3.5
      vertex 16.4087 23.5913 -3.5
    endloop
  endfacet
  facet normal 0 0 -1
    outer loop
      vertex 14.8976 8.24982 -3.5
      vertex 15.6079 22.7079 -3.5
      vertex 15.6079 7.29212 -3.5
    endloop
  endfacet
  facet normal 0 0 -1
    outer loop
      vertex 14.8976 8.24982 -3.5
      vertex 14.8976 21.7502 -3.5
      vertex 15.6079 22.7079 -3.5
    endloop
  endfacet
  facet normal 0 0 -1
    outer loop
      vertex 14.2847 9.27253 -3.5
      vertex 14.8976 21.7502 -3.5
      vertex 14.8976 8.24982 -3.5
    endloop
  endfacet
  facet normal 0 0 -1
    outer loop
      vertex 14.2847 9.27253 -3.5
      vertex 14.2847 20.7275 -3.5
      vertex 14.8976 21.7502 -3.5
    endloop
  endfacet
  facet normal 0 0 -1
    outer loop
      vertex 13.7749 10.3504 -3.5
      vertex 14.2847 20.7275 -3.5
      vertex 14.2847 9.27253 -3.5
    endloop
  endfacet
  facet normal 0 0 -1
    outer loop
      vertex 13.7749 10.3504 -3.5
      vertex 13.7749 19.6496 -3.5
      vertex 14.2847 20.7275 -3.5
    endloop
  endfacet
  facet normal 0 0 -1
    outer loop
      vertex 13.3732 11.473 -3.5
      vertex 13.7749 19.6496 -3.5
      vertex 13.7749 10.3504 -3.5
    endloop
  endfacet
  facet normal 0 0 -1
    outer loop
      vertex 13.3732 11.473 -3.5
      vertex 13.3732 18.527 -3.5
      vertex 13.7749 19.6496 -3.5
    endloop
  endfacet
  facet normal 0 0 -1
    outer loop
      vertex 13.0835 12.6297 -3.5
      vertex 13.3732 18.527 -3.5
      vertex 13.3732 11.473 -3.5
    endloop
  endfacet
  facet normal 0 0 -1
    outer loop
      vertex 13.0835 12.6297 -3.5
      vertex 13.0835 17.3703 -3.5
      vertex 13.3732 18.527 -3.5
    endloop
  endfacet
  facet normal 0 0 -1
    outer loop
      vertex 12.9085 13.8091 -3.5
      vertex 13.0835 17.3703 -3.5
      vertex 13.0835 12.6297 -3.5
    endloop
  endfacet
  facet normal 0 0 -1
    outer loop
      vertex 12.9085 13.8091 -3.5
      vertex 12.9085 16.1909 -3.5
      vertex 13.0835 17.3703 -3.5
    endloop
  endfacet
  facet normal 0 -0 -1
    outer loop
      vertex 12.9085 16.1909 -3.5
      vertex 12.9085 13.8091 -3.5
      vertex 12.85 15 -3.5
    endloop
  endfacet
  facet normal -0.803199 0.595711 0
    outer loop
      vertex 14.8976 21.7502 -3.5
      vertex 15.6079 22.7079 0
      vertex 15.6079 22.7079 -3.5
    endloop
  endfacet
  facet normal -0.803199 0.595711 0
    outer loop
      vertex 15.6079 22.7079 0
      vertex 14.8976 21.7502 -3.5
      vertex 14.8976 21.7502 0
    endloop
  endfacet
  facet normal -0.24295 0.970039 0
    outer loop
      vertex 22.6297 26.9165 -3.5
      vertex 21.473 26.6268 0
      vertex 22.6297 26.9165 0
    endloop
  endfacet
  facet normal -0.24295 0.970039 0
    outer loop
      vertex 21.473 26.6268 0
      vertex 22.6297 26.9165 -3.5
      vertex 21.473 26.6268 -3.5
    endloop
  endfacet
  facet normal -0.857761 -0.514048 0
    outer loop
      vertex 14.8976 8.24982 -3.5
      vertex 14.2847 9.27253 0
      vertex 14.2847 9.27253 -3.5
    endloop
  endfacet
  facet normal -0.857761 -0.514048 0
    outer loop
      vertex 14.2847 9.27253 0
      vertex 14.8976 8.24982 -3.5
      vertex 14.8976 8.24982 0
    endloop
  endfacet
  facet normal 0.98917 0.146774 0
    outer loop
      vertex 37.0915 16.1909 0
      vertex 36.9165 17.3703 -3.5
      vertex 36.9165 17.3703 0
    endloop
  endfacet
  facet normal 0.98917 0.146774 0
    outer loop
      vertex 36.9165 17.3703 -3.5
      vertex 37.0915 16.1909 0
      vertex 37.0915 16.1909 -3.5
    endloop
  endfacet
  facet normal 0.803199 0.595711 0
    outer loop
      vertex 35.1024 21.7502 0
      vertex 34.3921 22.7079 -3.5
      vertex 34.3921 22.7079 0
    endloop
  endfacet
  facet normal 0.803199 0.595711 0
    outer loop
      vertex 34.3921 22.7079 -3.5
      vertex 35.1024 21.7502 0
      vertex 35.1024 21.7502 -3.5
    endloop
  endfacet
  facet normal 0.67162 0.740896 -0
    outer loop
      vertex 33.5913 23.5913 -3.5
      vertex 32.7079 24.3921 0
      vertex 33.5913 23.5913 0
    endloop
  endfacet
  facet normal 0.67162 0.740896 0
    outer loop
      vertex 32.7079 24.3921 0
      vertex 33.5913 23.5913 -3.5
      vertex 32.7079 24.3921 -3.5
    endloop
  endfacet
  facet normal 0.740896 0.67162 0
    outer loop
      vertex 34.3921 22.7079 0
      vertex 33.5913 23.5913 -3.5
      vertex 33.5913 23.5913 0
    endloop
  endfacet
  facet normal 0.740896 0.67162 0
    outer loop
      vertex 33.5913 23.5913 -3.5
      vertex 34.3921 22.7079 0
      vertex 34.3921 22.7079 -3.5
    endloop
  endfacet
  facet normal -0.0490634 0.998796 0
    outer loop
      vertex 25 27.15 -3.5
      vertex 23.8091 27.0915 0
      vertex 25 27.15 0
    endloop
  endfacet
  facet normal -0.0490634 0.998796 0
    outer loop
      vertex 23.8091 27.0915 0
      vertex 25 27.15 -3.5
      vertex 23.8091 27.0915 -3.5
    endloop
  endfacet
  facet normal 0.24295 0.970039 -0
    outer loop
      vertex 28.527 26.6268 -3.5
      vertex 27.3703 26.9165 0
      vertex 28.527 26.6268 0
    endloop
  endfacet
  facet normal 0.24295 0.970039 0
    outer loop
      vertex 27.3703 26.9165 0
      vertex 28.527 26.6268 -3.5
      vertex 27.3703 26.9165 -3.5
    endloop
  endfacet
  facet normal 0.146774 0.98917 -0
    outer loop
      vertex 27.3703 26.9165 -3.5
      vertex 26.1909 27.0915 0
      vertex 27.3703 26.9165 0
    endloop
  endfacet
  facet normal 0.146774 0.98917 0
    outer loop
      vertex 26.1909 27.0915 0
      vertex 27.3703 26.9165 -3.5
      vertex 26.1909 27.0915 -3.5
    endloop
  endfacet
  facet normal 0.427549 0.903992 -0
    outer loop
      vertex 30.7275 25.7153 -3.5
      vertex 29.6496 26.2251 0
      vertex 30.7275 25.7153 0
    endloop
  endfacet
  facet normal 0.427549 0.903992 0
    outer loop
      vertex 29.6496 26.2251 0
      vertex 30.7275 25.7153 -3.5
      vertex 29.6496 26.2251 -3.5
    endloop
  endfacet
  facet normal 0.595711 0.803199 -0
    outer loop
      vertex 32.7079 24.3921 -3.5
      vertex 31.7502 25.1024 0
      vertex 32.7079 24.3921 0
    endloop
  endfacet
  facet normal 0.595711 0.803199 0
    outer loop
      vertex 31.7502 25.1024 0
      vertex 32.7079 24.3921 -3.5
      vertex 31.7502 25.1024 -3.5
    endloop
  endfacet
  facet normal -0.998796 -0.0490634 0
    outer loop
      vertex 12.9085 13.8091 -3.5
      vertex 12.85 15 0
      vertex 12.85 15 -3.5
    endloop
  endfacet
  facet normal -0.998796 -0.0490634 0
    outer loop
      vertex 12.85 15 0
      vertex 12.9085 13.8091 -3.5
      vertex 12.9085 13.8091 0
    endloop
  endfacet
  facet normal -0.970039 0.24295 0
    outer loop
      vertex 13.0835 17.3703 -3.5
      vertex 13.3732 18.527 0
      vertex 13.3732 18.527 -3.5
    endloop
  endfacet
  facet normal -0.970039 0.24295 0
    outer loop
      vertex 13.3732 18.527 0
      vertex 13.0835 17.3703 -3.5
      vertex 13.0835 17.3703 0
    endloop
  endfacet
  facet normal -0.98917 0.146774 0
    outer loop
      vertex 12.9085 16.1909 -3.5
      vertex 13.0835 17.3703 0
      vertex 13.0835 17.3703 -3.5
    endloop
  endfacet
  facet normal -0.98917 0.146774 0
    outer loop
      vertex 13.0835 17.3703 0
      vertex 12.9085 16.1909 -3.5
      vertex 12.9085 16.1909 0
    endloop
  endfacet
  facet normal -0.903992 0.427549 0
    outer loop
      vertex 13.7749 19.6496 -3.5
      vertex 14.2847 20.7275 0
      vertex 14.2847 20.7275 -3.5
    endloop
  endfacet
  facet normal -0.903992 0.427549 0
    outer loop
      vertex 14.2847 20.7275 0
      vertex 13.7749 19.6496 -3.5
      vertex 13.7749 19.6496 0
    endloop
  endfacet
  facet normal -0.857759 0.514052 0
    outer loop
      vertex 14.2847 20.7275 -3.5
      vertex 14.8976 21.7502 0
      vertex 14.8976 21.7502 -3.5
    endloop
  endfacet
  facet normal -0.857759 0.514052 0
    outer loop
      vertex 14.8976 21.7502 0
      vertex 14.2847 20.7275 -3.5
      vertex 14.2847 20.7275 0
    endloop
  endfacet
  facet normal -0.33691 0.941537 0
    outer loop
      vertex 21.473 26.6268 -3.5
      vertex 20.3504 26.2251 0
      vertex 21.473 26.6268 0
    endloop
  endfacet
  facet normal -0.33691 0.941537 0
    outer loop
      vertex 20.3504 26.2251 0
      vertex 21.473 26.6268 -3.5
      vertex 20.3504 26.2251 -3.5
    endloop
  endfacet
  facet normal -0.146774 0.98917 0
    outer loop
      vertex 23.8091 27.0915 -3.5
      vertex 22.6297 26.9165 0
      vertex 23.8091 27.0915 0
    endloop
  endfacet
  facet normal -0.146774 0.98917 0
    outer loop
      vertex 22.6297 26.9165 0
      vertex 23.8091 27.0915 -3.5
      vertex 22.6297 26.9165 -3.5
    endloop
  endfacet
  facet normal -0.595711 0.803199 0
    outer loop
      vertex 18.2498 25.1024 -3.5
      vertex 17.2921 24.3921 0
      vertex 18.2498 25.1024 0
    endloop
  endfacet
  facet normal -0.595711 0.803199 0
    outer loop
      vertex 17.2921 24.3921 0
      vertex 18.2498 25.1024 -3.5
      vertex 17.2921 24.3921 -3.5
    endloop
  endfacet
  facet normal -0.67162 0.740896 0
    outer loop
      vertex 17.2921 24.3921 -3.5
      vertex 16.4087 23.5913 0
      vertex 17.2921 24.3921 0
    endloop
  endfacet
  facet normal -0.67162 0.740896 0
    outer loop
      vertex 16.4087 23.5913 0
      vertex 17.2921 24.3921 -3.5
      vertex 16.4087 23.5913 -3.5
    endloop
  endfacet
  facet normal -0.514052 0.857759 0
    outer loop
      vertex 19.2725 25.7153 -3.5
      vertex 18.2498 25.1024 0
      vertex 19.2725 25.7153 0
    endloop
  endfacet
  facet normal -0.514052 0.857759 0
    outer loop
      vertex 18.2498 25.1024 0
      vertex 19.2725 25.7153 -3.5
      vertex 18.2498 25.1024 -3.5
    endloop
  endfacet
  facet normal -0.740896 0.67162 0
    outer loop
      vertex 15.6079 22.7079 -3.5
      vertex 16.4087 23.5913 0
      vertex 16.4087 23.5913 -3.5
    endloop
  endfacet
  facet normal -0.740896 0.67162 0
    outer loop
      vertex 16.4087 23.5913 0
      vertex 15.6079 22.7079 -3.5
      vertex 15.6079 22.7079 0
    endloop
  endfacet
  facet normal 0.998796 0.0490634 0
    outer loop
      vertex 37.15 15 0
      vertex 37.0915 16.1909 -3.5
      vertex 37.0915 16.1909 0
    endloop
  endfacet
  facet normal 0.998796 0.0490634 0
    outer loop
      vertex 37.0915 16.1909 -3.5
      vertex 37.15 15 0
      vertex 37.15 15 -3.5
    endloop
  endfacet
  facet normal 0.803199 -0.595711 0
    outer loop
      vertex 34.3921 7.29212 0
      vertex 35.1024 8.24982 -3.5
      vertex 35.1024 8.24982 0
    endloop
  endfacet
  facet normal 0.803199 -0.595711 0
    outer loop
      vertex 35.1024 8.24982 -3.5
      vertex 34.3921 7.29212 0
      vertex 34.3921 7.29212 -3.5
    endloop
  endfacet
  facet normal 0.146733 -0.989176 0
    outer loop
      vertex 26.1909 2.90851 -3.5
      vertex 27.3703 3.08346 0
      vertex 26.1909 2.90851 0
    endloop
  endfacet
  facet normal 0.146733 -0.989176 0
    outer loop
      vertex 27.3703 3.08346 0
      vertex 26.1909 2.90851 -3.5
      vertex 27.3703 3.08346 -3.5
    endloop
  endfacet
  facet normal 0.903992 0.427549 0
    outer loop
      vertex 36.2251 19.6496 0
      vertex 35.7153 20.7275 -3.5
      vertex 35.7153 20.7275 0
    endloop
  endfacet
  facet normal 0.903992 0.427549 0
    outer loop
      vertex 35.7153 20.7275 -3.5
      vertex 36.2251 19.6496 0
      vertex 36.2251 19.6496 -3.5
    endloop
  endfacet
  facet normal 0.941537 0.33691 0
    outer loop
      vertex 36.6268 18.527 0
      vertex 36.2251 19.6496 -3.5
      vertex 36.2251 19.6496 0
    endloop
  endfacet
  facet normal 0.941537 0.33691 0
    outer loop
      vertex 36.2251 19.6496 -3.5
      vertex 36.6268 18.527 0
      vertex 36.6268 18.527 -3.5
    endloop
  endfacet
  facet normal 0.970039 0.24295 0
    outer loop
      vertex 36.9165 17.3703 0
      vertex 36.6268 18.527 -3.5
      vertex 36.6268 18.527 0
    endloop
  endfacet
  facet normal 0.970039 0.24295 0
    outer loop
      vertex 36.6268 18.527 -3.5
      vertex 36.9165 17.3703 0
      vertex 36.9165 17.3703 -3.5
    endloop
  endfacet
  facet normal -0.998796 0.0490634 0
    outer loop
      vertex 12.85 15 -3.5
      vertex 12.9085 16.1909 0
      vertex 12.9085 16.1909 -3.5
    endloop
  endfacet
  facet normal -0.998796 0.0490634 0
    outer loop
      vertex 12.9085 16.1909 0
      vertex 12.85 15 -3.5
      vertex 12.85 15 0
    endloop
  endfacet
  facet normal 0.98917 -0.146774 0
    outer loop
      vertex 36.9165 12.6297 0
      vertex 37.0915 13.8091 -3.5
      vertex 37.0915 13.8091 0
    endloop
  endfacet
  facet normal 0.98917 -0.146774 0
    outer loop
      vertex 37.0915 13.8091 -3.5
      vertex 36.9165 12.6297 0
      vertex 36.9165 12.6297 -3.5
    endloop
  endfacet
  facet normal 0.903988 -0.427559 0
    outer loop
      vertex 35.7153 9.27253 0
      vertex 36.2251 10.3504 -3.5
      vertex 36.2251 10.3504 0
    endloop
  endfacet
  facet normal 0.903988 -0.427559 0
    outer loop
      vertex 36.2251 10.3504 -3.5
      vertex 35.7153 9.27253 0
      vertex 35.7153 9.27253 -3.5
    endloop
  endfacet
  facet normal -0.0490717 -0.998795 0
    outer loop
      vertex 23.8091 2.90851 -3.5
      vertex 25 2.85 0
      vertex 23.8091 2.90851 0
    endloop
  endfacet
  facet normal -0.0490717 -0.998795 -0
    outer loop
      vertex 25 2.85 0
      vertex 23.8091 2.90851 -3.5
      vertex 25 2.85 -3.5
    endloop
  endfacet
  facet normal -0.427549 -0.903992 0
    outer loop
      vertex 19.2725 4.28466 -3.5
      vertex 20.3504 3.77486 0
      vertex 19.2725 4.28466 0
    endloop
  endfacet
  facet normal -0.427549 -0.903992 -0
    outer loop
      vertex 20.3504 3.77486 0
      vertex 19.2725 4.28466 -3.5
      vertex 20.3504 3.77486 -3.5
    endloop
  endfacet
  facet normal -0.98917 -0.146774 0
    outer loop
      vertex 13.0835 12.6297 -3.5
      vertex 12.9085 13.8091 0
      vertex 12.9085 13.8091 -3.5
    endloop
  endfacet
  facet normal -0.98917 -0.146774 0
    outer loop
      vertex 12.9085 13.8091 0
      vertex 13.0835 12.6297 -3.5
      vertex 13.0835 12.6297 0
    endloop
  endfacet
  facet normal -0.941537 -0.33691 0
    outer loop
      vertex 13.7749 10.3504 -3.5
      vertex 13.3732 11.473 0
      vertex 13.3732 11.473 -3.5
    endloop
  endfacet
  facet normal -0.941537 -0.33691 0
    outer loop
      vertex 13.3732 11.473 0
      vertex 13.7749 10.3504 -3.5
      vertex 13.7749 10.3504 0
    endloop
  endfacet
  facet normal 0.427549 -0.903992 0
    outer loop
      vertex 29.6496 3.77486 -3.5
      vertex 30.7275 4.28466 0
      vertex 29.6496 3.77486 0
    endloop
  endfacet
  facet normal 0.427549 -0.903992 0
    outer loop
      vertex 30.7275 4.28466 0
      vertex 29.6496 3.77486 -3.5
      vertex 30.7275 4.28466 -3.5
    endloop
  endfacet
  facet normal 0.242958 -0.970037 0
    outer loop
      vertex 27.3703 3.08346 -3.5
      vertex 28.527 3.37317 0
      vertex 27.3703 3.08346 0
    endloop
  endfacet
  facet normal 0.242958 -0.970037 0
    outer loop
      vertex 28.527 3.37317 0
      vertex 27.3703 3.08346 -3.5
      vertex 28.527 3.37317 -3.5
    endloop
  endfacet
  facet normal 0.970039 -0.24295 0
    outer loop
      vertex 36.6268 11.473 0
      vertex 36.9165 12.6297 -3.5
      vertex 36.9165 12.6297 0
    endloop
  endfacet
  facet normal 0.970039 -0.24295 0
    outer loop
      vertex 36.9165 12.6297 -3.5
      vertex 36.6268 11.473 0
      vertex 36.6268 11.473 -3.5
    endloop
  endfacet
  facet normal 0.941537 -0.33691 0
    outer loop
      vertex 36.2251 10.3504 0
      vertex 36.6268 11.473 -3.5
      vertex 36.6268 11.473 0
    endloop
  endfacet
  facet normal 0.941537 -0.33691 0
    outer loop
      vertex 36.6268 11.473 -3.5
      vertex 36.2251 10.3504 0
      vertex 36.2251 10.3504 -3.5
    endloop
  endfacet
  facet normal 0.514101 -0.85773 0
    outer loop
      vertex 30.7275 4.28466 -3.5
      vertex 31.7502 4.89764 0
      vertex 30.7275 4.28466 0
    endloop
  endfacet
  facet normal 0.514101 -0.85773 0
    outer loop
      vertex 31.7502 4.89764 0
      vertex 30.7275 4.28466 -3.5
      vertex 31.7502 4.89764 -3.5
    endloop
  endfacet
  facet normal 0.857761 -0.514048 0
    outer loop
      vertex 35.1024 8.24982 0
      vertex 35.7153 9.27253 -3.5
      vertex 35.7153 9.27253 0
    endloop
  endfacet
  facet normal 0.857761 -0.514048 0
    outer loop
      vertex 35.7153 9.27253 -3.5
      vertex 35.1024 8.24982 0
      vertex 35.1024 8.24982 -3.5
    endloop
  endfacet
  facet normal -0.5957 -0.803207 0
    outer loop
      vertex 17.2921 5.60792 -3.5
      vertex 18.2498 4.89764 0
      vertex 17.2921 5.60792 0
    endloop
  endfacet
  facet normal -0.5957 -0.803207 -0
    outer loop
      vertex 18.2498 4.89764 0
      vertex 17.2921 5.60792 -3.5
      vertex 18.2498 4.89764 -3.5
    endloop
  endfacet
  facet normal 0.0490717 -0.998795 0
    outer loop
      vertex 25 2.85 -3.5
      vertex 26.1909 2.90851 0
      vertex 25 2.85 0
    endloop
  endfacet
  facet normal 0.0490717 -0.998795 0
    outer loop
      vertex 26.1909 2.90851 0
      vertex 25 2.85 -3.5
      vertex 26.1909 2.90851 -3.5
    endloop
  endfacet
  facet normal -0.242958 -0.970037 0
    outer loop
      vertex 21.473 3.37317 -3.5
      vertex 22.6297 3.08346 0
      vertex 21.473 3.37317 0
    endloop
  endfacet
  facet normal -0.242958 -0.970037 -0
    outer loop
      vertex 22.6297 3.08346 0
      vertex 21.473 3.37317 -3.5
      vertex 22.6297 3.08346 -3.5
    endloop
  endfacet
  facet normal -0.514101 -0.85773 0
    outer loop
      vertex 18.2498 4.89764 -3.5
      vertex 19.2725 4.28466 0
      vertex 18.2498 4.89764 0
    endloop
  endfacet
  facet normal -0.514101 -0.85773 -0
    outer loop
      vertex 19.2725 4.28466 0
      vertex 18.2498 4.89764 -3.5
      vertex 19.2725 4.28466 -3.5
    endloop
  endfacet
  facet normal -0.970039 -0.24295 0
    outer loop
      vertex 13.3732 11.473 -3.5
      vertex 13.0835 12.6297 0
      vertex 13.0835 12.6297 -3.5
    endloop
  endfacet
  facet normal -0.970039 -0.24295 0
    outer loop
      vertex 13.0835 12.6297 0
      vertex 13.3732 11.473 -3.5
      vertex 13.3732 11.473 0
    endloop
  endfacet
  facet normal -0.903988 -0.427559 0
    outer loop
      vertex 14.2847 9.27253 -3.5
      vertex 13.7749 10.3504 0
      vertex 13.7749 10.3504 -3.5
    endloop
  endfacet
  facet normal -0.903988 -0.427559 0
    outer loop
      vertex 13.7749 10.3504 0
      vertex 14.2847 9.27253 -3.5
      vertex 14.2847 9.27253 0
    endloop
  endfacet
  facet normal -0.803199 -0.595711 0
    outer loop
      vertex 15.6079 7.29212 -3.5
      vertex 14.8976 8.24982 0
      vertex 14.8976 8.24982 -3.5
    endloop
  endfacet
  facet normal -0.803199 -0.595711 0
    outer loop
      vertex 14.8976 8.24982 0
      vertex 15.6079 7.29212 -3.5
      vertex 15.6079 7.29212 0
    endloop
  endfacet
  facet normal -0.671588 -0.740925 0
    outer loop
      vertex 16.4087 6.40865 -3.5
      vertex 17.2921 5.60792 0
      vertex 16.4087 6.40865 0
    endloop
  endfacet
  facet normal -0.671588 -0.740925 -0
    outer loop
      vertex 17.2921 5.60792 0
      vertex 16.4087 6.40865 -3.5
      vertex 17.2921 5.60792 -3.5
    endloop
  endfacet
  facet normal -0.740922 -0.671591 0
    outer loop
      vertex 16.4087 6.40865 -3.5
      vertex 15.6079 7.29212 0
      vertex 15.6079 7.29212 -3.5
    endloop
  endfacet
  facet normal -0.740922 -0.671591 0
    outer loop
      vertex 15.6079 7.29212 0
      vertex 16.4087 6.40865 -3.5
      vertex 16.4087 6.40865 0
    endloop
  endfacet
  facet normal 0.5957 -0.803207 0
    outer loop
      vertex 31.7502 4.89764 -3.5
      vertex 32.7079 5.60792 0
      vertex 31.7502 4.89764 0
    endloop
  endfacet
  facet normal 0.5957 -0.803207 0
    outer loop
      vertex 32.7079 5.60792 0
      vertex 31.7502 4.89764 -3.5
      vertex 32.7079 5.60792 -3.5
    endloop
  endfacet
  facet normal 0.740922 -0.671591 0
    outer loop
      vertex 33.5913 6.40865 0
      vertex 34.3921 7.29212 -3.5
      vertex 34.3921 7.29212 0
    endloop
  endfacet
  facet normal 0.740922 -0.671591 0
    outer loop
      vertex 34.3921 7.29212 -3.5
      vertex 33.5913 6.40865 0
      vertex 33.5913 6.40865 -3.5
    endloop
  endfacet
  facet normal 0.671588 -0.740925 0
    outer loop
      vertex 32.7079 5.60792 -3.5
      vertex 33.5913 6.40865 0
      vertex 32.7079 5.60792 0
    endloop
  endfacet
  facet normal 0.671588 -0.740925 0
    outer loop
      vertex 33.5913 6.40865 0
      vertex 32.7079 5.60792 -3.5
      vertex 33.5913 6.40865 -3.5
    endloop
  endfacet
  facet normal -0.146733 -0.989176 0
    outer loop
      vertex 22.6297 3.08346 -3.5
      vertex 23.8091 2.90851 0
      vertex 22.6297 3.08346 0
    endloop
  endfacet
  facet normal -0.146733 -0.989176 -0
    outer loop
      vertex 23.8091 2.90851 0
      vertex 22.6297 3.08346 -3.5
      vertex 23.8091 2.90851 -3.5
    endloop
  endfacet
  facet normal -0.336903 -0.941539 0
    outer loop
      vertex 20.3504 3.77486 -3.5
      vertex 21.473 3.37317 0
      vertex 20.3504 3.77486 0
    endloop
  endfacet
  facet normal -0.336903 -0.941539 -0
    outer loop
      vertex 21.473 3.37317 0
      vertex 20.3504 3.77486 -3.5
      vertex 21.473 3.37317 -3.5
    endloop
  endfacet
  facet normal 0.336903 -0.941539 0
    outer loop
      vertex 28.527 3.37317 -3.5
      vertex 29.6496 3.77486 0
      vertex 28.527 3.37317 0
    endloop
  endfacet
  facet normal 0.336903 -0.941539 0
    outer loop
      vertex 29.6496 3.77486 0
      vertex 28.527 3.37317 -3.5
      vertex 29.6496 3.77486 -3.5
    endloop
  endfacet
endsolid OpenSCAD_Model
